<svg id="svg" version="1.1" xmlns="http://www.w3.org/2000/svg" xmlns:xlink="http://www.w3.org/1999/xlink" width="400" height="135.27272727272728" viewBox="0, 0, 400,135.27272727272728"><g id="svgg"><path id="path0" d="M60.026 36.690 C 59.318 36.952,59.338 36.265,59.333 60.431 C 59.331 73.165,59.330 83.675,59.331 83.787 C 59.340 84.575,68.794 84.946,69.552 84.189 C 69.837 83.904,69.853 83.338,69.839 74.151 L 69.824 64.416 70.310 63.833 L 70.797 63.250 86.165 63.222 C 100.838 63.196,101.545 63.181,101.809 62.889 C 102.584 62.032,102.670 57.562,101.921 57.071 C 101.560 56.834,99.939 56.808,86.467 56.822 C 78.189 56.830,71.192 56.776,70.917 56.702 C 69.889 56.424,69.834 56.074,69.834 49.833 L 69.835 44.250 70.235 43.750 L 70.635 43.250 88.859 43.163 C 98.882 43.115,107.093 43.058,107.105 43.038 C 107.335 42.643,107.463 41.120,107.416 39.340 C 107.350 36.861,107.267 36.668,106.260 36.665 C 77.353 36.598,60.250 36.607,60.026 36.690 M118.189 36.849 C 117.661 37.277,117.593 43.167,118.111 43.685 C 118.672 44.246,127.348 44.226,127.873 43.662 C 128.367 43.132,128.343 37.446,127.845 36.941 C 127.409 36.500,118.722 36.417,118.189 36.849 M178.930 36.657 C 177.918 36.863,177.833 37.094,177.833 39.645 C 177.833 42.287,177.998 42.925,178.715 43.068 C 178.987 43.122,183.763 43.167,189.330 43.167 L 199.451 43.167 200.017 43.548 L 200.583 43.930 200.622 63.914 C 200.656 81.727,200.688 83.926,200.919 84.157 C 201.136 84.375,201.913 84.430,205.761 84.500 L 210.345 84.583 210.839 84.196 L 211.333 83.809 211.333 63.930 C 211.333 45.199,211.350 44.038,211.625 43.817 C 212.443 43.161,212.339 43.167,223.145 43.167 L 233.628 43.167 233.938 42.708 C 234.387 42.043,234.337 37.249,233.878 36.901 C 233.635 36.716,228.992 36.676,207.167 36.670 C 192.637 36.666,180.487 36.632,180.167 36.593 C 179.846 36.555,179.289 36.584,178.930 36.657 M330.545 36.799 C 330.077 37.141,329.923 83.523,330.387 84.114 L 330.691 84.500 335.262 84.500 C 341.203 84.500,340.500 85.423,340.501 77.625 C 340.501 70.542,340.459 70.768,341.956 69.842 C 342.393 69.572,343.000 69.085,343.305 68.759 C 344.146 67.862,346.333 68.020,346.333 68.977 C 346.333 69.049,346.990 69.790,347.792 70.623 C 348.594 71.457,349.962 72.900,350.833 73.830 C 351.704 74.760,352.904 76.036,353.500 76.666 C 354.096 77.295,355.296 78.579,356.167 79.517 C 359.337 82.933,360.425 84.035,360.848 84.256 C 361.597 84.646,371.906 84.637,372.339 84.245 C 372.828 83.802,372.739 83.388,372.042 82.875 C 371.698 82.621,370.367 81.340,369.083 80.027 C 367.800 78.714,365.813 76.681,364.667 75.509 C 356.589 67.245,353.269 63.816,353.064 63.523 C 352.665 62.953,353.385 61.877,354.602 61.223 C 355.142 60.934,355.680 60.610,355.797 60.503 C 356.212 60.128,358.531 58.578,359.304 58.160 C 359.735 57.926,360.273 57.564,360.502 57.355 C 361.010 56.888,362.305 56.007,363.401 55.383 C 363.851 55.126,364.435 54.718,364.699 54.476 C 364.963 54.234,365.420 53.937,365.715 53.816 C 366.009 53.696,366.475 53.388,366.750 53.133 C 367.025 52.877,367.655 52.476,368.151 52.241 C 368.646 52.005,369.258 51.593,369.509 51.323 C 369.761 51.054,370.075 50.833,370.208 50.833 C 370.768 50.833,371.117 50.164,370.723 49.845 C 370.396 49.580,369.885 49.561,364.641 49.620 C 358.184 49.691,358.367 49.673,357.628 50.299 C 357.328 50.553,356.802 50.907,356.458 51.085 C 356.115 51.263,355.833 51.464,355.833 51.532 C 355.833 51.600,355.313 51.995,354.677 52.410 C 354.041 52.825,353.476 53.237,353.422 53.325 C 353.368 53.413,352.955 53.685,352.505 53.930 C 352.054 54.175,351.648 54.475,351.601 54.597 C 351.554 54.719,351.226 54.966,350.872 55.147 C 350.517 55.328,349.902 55.748,349.504 56.080 C 349.106 56.412,348.529 56.789,348.221 56.918 C 347.914 57.046,347.618 57.267,347.563 57.409 C 347.509 57.550,347.041 57.893,346.524 58.171 C 346.007 58.449,345.294 58.937,344.940 59.255 C 344.586 59.573,344.196 59.833,344.073 59.833 C 343.951 59.833,343.650 60.095,343.406 60.416 C 343.115 60.798,342.725 61.066,342.273 61.195 C 341.894 61.303,341.490 61.463,341.375 61.550 C 341.123 61.741,340.727 61.454,340.573 60.967 C 340.514 60.783,340.455 55.355,340.442 48.905 C 340.420 38.531,340.387 37.149,340.157 36.919 C 339.802 36.564,331.016 36.454,330.545 36.799 M162.750 49.006 C 160.073 49.274,157.758 49.777,156.491 50.368 C 155.992 50.600,155.195 50.917,154.721 51.071 C 154.247 51.225,153.765 51.464,153.651 51.602 C 152.786 52.644,151.167 52.430,151.167 51.273 C 151.167 51.025,151.061 50.569,150.931 50.259 L 150.696 49.696 146.223 49.636 C 141.180 49.569,140.670 49.651,140.663 50.531 C 140.660 50.789,140.654 58.406,140.650 67.458 L 140.641 83.917 141.215 84.250 C 142.033 84.725,150.293 84.612,150.785 84.120 C 151.065 83.840,151.079 83.203,151.025 73.120 C 150.950 58.954,150.867 59.439,153.582 58.047 C 154.039 57.812,154.489 57.520,154.582 57.398 C 154.986 56.863,159.062 55.316,160.750 55.056 C 164.045 54.550,167.917 54.919,169.311 55.871 C 172.322 57.928,172.230 57.429,172.283 71.991 C 172.324 83.184,172.344 83.910,172.621 84.075 C 173.398 84.536,173.976 84.580,178.159 84.500 L 182.494 84.417 182.787 84.000 C 182.949 83.771,183.044 83.508,183.000 83.417 C 182.956 83.325,182.877 77.700,182.826 70.917 C 182.726 57.886,182.760 58.464,182.012 56.750 C 181.932 56.567,181.768 56.154,181.648 55.833 C 181.206 54.657,179.758 52.973,178.458 52.127 C 178.023 51.843,177.667 51.554,177.667 51.484 C 177.667 51.414,177.235 51.200,176.708 51.008 C 176.181 50.816,175.483 50.514,175.158 50.337 C 173.396 49.380,166.458 48.636,162.750 49.006 M262.333 49.075 C 260.415 49.354,258.234 49.938,257.667 50.324 C 257.438 50.480,256.899 50.737,256.470 50.896 C 256.041 51.055,255.366 51.443,254.970 51.758 C 253.780 52.704,252.833 52.401,252.833 51.074 C 252.833 50.125,252.414 49.667,251.545 49.667 C 251.203 49.667,249.232 49.655,247.164 49.640 C 244.216 49.620,243.298 49.665,242.911 49.851 L 242.417 50.088 242.333 66.836 C 242.239 85.742,242.171 83.885,242.972 84.281 C 243.916 84.748,252.237 84.585,252.597 84.093 C 252.796 83.821,252.833 81.897,252.833 72.006 L 252.833 60.243 253.864 59.248 C 254.431 58.700,255.193 58.119,255.557 57.956 C 255.920 57.793,256.300 57.549,256.401 57.414 C 257.330 56.162,265.030 55.139,267.569 55.931 C 269.411 56.506,269.869 55.806,269.861 52.434 L 269.854 50.083 269.233 49.542 C 268.773 49.141,268.451 49.000,267.998 49.000 C 267.661 49.000,266.605 48.965,265.651 48.922 C 264.618 48.876,263.276 48.938,262.333 49.075 M292.382 49.015 C 288.395 49.256,284.743 49.803,283.527 50.341 C 283.117 50.523,282.324 50.788,281.765 50.932 C 281.207 51.075,280.412 51.407,280.000 51.670 C 279.587 51.932,279.077 52.211,278.866 52.289 C 278.343 52.482,277.202 53.473,275.744 55.000 C 275.525 55.229,275.182 55.792,274.981 56.250 C 274.780 56.708,274.451 57.346,274.249 57.667 C 273.681 58.570,273.618 58.930,273.919 59.564 C 274.276 60.317,274.261 60.315,279.058 60.342 L 283.199 60.366 283.807 59.873 C 284.142 59.602,284.679 58.885,285.000 58.280 C 285.871 56.637,287.804 55.393,290.083 55.006 C 295.349 54.114,302.303 54.516,303.991 55.811 C 304.317 56.061,304.785 56.393,305.032 56.547 C 306.479 57.454,307.427 61.402,306.422 62.333 L 305.973 62.750 299.612 62.869 C 295.426 62.948,292.737 63.071,291.750 63.229 C 290.925 63.361,288.938 63.667,287.333 63.909 C 285.729 64.150,283.929 64.525,283.333 64.742 C 282.737 64.959,281.800 65.266,281.250 65.424 C 279.847 65.828,276.625 67.414,276.374 67.825 C 276.258 68.013,276.063 68.167,275.940 68.167 C 275.719 68.167,275.237 68.599,274.240 69.691 C 272.448 71.654,271.630 76.773,272.905 78.048 C 273.023 78.166,273.273 78.610,273.461 79.034 C 273.649 79.458,273.994 79.931,274.228 80.084 C 274.462 80.238,274.693 80.488,274.742 80.640 C 274.790 80.792,275.149 81.124,275.540 81.377 C 275.930 81.630,276.550 82.048,276.917 82.306 C 277.283 82.564,277.958 82.911,278.417 83.077 C 278.875 83.243,279.362 83.470,279.500 83.581 C 279.847 83.861,280.205 83.977,281.833 84.336 C 282.612 84.508,283.737 84.773,284.333 84.926 C 286.174 85.397,293.550 85.452,295.917 85.012 C 300.725 84.119,301.998 83.843,302.359 83.618 C 302.574 83.483,303.125 83.239,303.583 83.075 C 304.042 82.910,304.492 82.721,304.583 82.655 C 304.675 82.588,305.122 82.507,305.578 82.475 L 306.405 82.417 306.662 83.108 C 307.200 84.561,306.961 84.500,312.083 84.500 C 316.346 84.500,316.632 84.481,316.906 84.179 C 317.325 83.716,317.315 60.934,316.895 58.672 C 316.371 55.850,314.876 53.587,312.648 52.243 C 312.062 51.890,311.559 51.542,311.529 51.470 C 311.499 51.399,310.936 51.183,310.279 50.992 C 309.621 50.801,308.767 50.501,308.380 50.324 C 307.196 49.784,303.712 49.266,299.500 49.005 C 296.473 48.818,295.631 48.819,292.382 49.015 M122.833 49.667 C 120.261 49.715,118.296 49.822,118.128 49.922 C 117.687 50.184,117.662 83.701,118.103 84.188 C 118.539 84.670,127.256 84.667,127.813 84.185 L 128.176 83.869 128.169 67.074 C 128.162 49.759,128.171 49.988,127.514 49.699 C 127.369 49.635,125.263 49.621,122.833 49.667 M305.657 68.157 C 306.792 68.376,306.836 68.509,306.817 71.657 C 306.808 73.175,306.751 74.576,306.692 74.771 C 306.535 75.283,304.454 76.928,303.533 77.268 C 303.103 77.426,302.625 77.662,302.472 77.791 C 301.652 78.485,295.184 79.833,292.675 79.833 C 289.508 79.833,285.872 78.788,284.477 77.477 C 283.419 76.482,283.264 76.123,283.266 74.667 C 283.268 73.063,284.288 71.167,285.148 71.167 C 285.215 71.167,285.418 71.029,285.598 70.862 C 287.137 69.428,291.230 68.438,296.667 68.186 C 300.692 68.000,304.771 67.986,305.657 68.157 " stroke="none" fill="#ec2d59" fill-rule="evenodd"></path><path id="path1" d="M48.333 0.489 C 48.333 0.758,48.251 1.189,48.151 1.447 C 48.026 1.770,47.973 5.121,47.982 12.167 C 47.989 17.804,47.928 22.749,47.847 23.155 C 47.677 24.013,47.719 24.182,48.176 24.467 C 48.597 24.730,87.224 24.763,87.913 24.502 L 88.333 24.342 88.333 13.361 C 88.333 2.070,88.290 0.833,87.894 0.833 C 87.763 0.833,87.667 0.657,87.667 0.417 L 87.667 0.000 68.000 0.000 L 48.333 0.000 48.333 0.489 M19.833 29.331 C 8.971 29.387,0.065 29.447,0.042 29.466 C 0.019 29.485,-0.000 35.452,-0.000 42.727 L -0.000 55.954 1.042 56.058 C 2.434 56.198,40.847 56.215,41.208 56.076 C 41.667 55.900,41.680 55.476,41.631 42.257 L 41.583 29.597 41.000 29.454 C 40.062 29.223,40.436 29.225,19.833 29.331 M365.612 34.069 C 365.562 34.199,365.575 34.507,365.641 34.754 C 365.816 35.406,366.261 34.825,366.186 34.042 C 366.159 33.757,365.724 33.778,365.612 34.069 M371.438 35.044 C 371.279 35.636,371.315 35.833,371.583 35.833 C 371.749 35.833,371.833 35.668,371.833 35.343 C 371.833 34.736,371.573 34.539,371.438 35.044 M365.667 37.167 C 365.667 38.103,365.860 38.239,366.160 37.515 C 366.310 37.153,366.314 36.942,366.175 36.682 C 365.864 36.100,365.667 36.288,365.667 37.167 M369.000 36.997 C 368.673 37.067,368.563 37.135,368.750 37.150 C 369.252 37.191,369.634 37.547,369.926 38.247 C 370.269 39.069,370.537 38.814,370.468 37.732 C 370.411 36.826,370.223 36.732,369.000 36.997 M371.426 39.818 C 371.310 40.006,371.487 40.500,371.671 40.500 C 371.851 40.500,371.970 40.135,371.874 39.875 C 371.784 39.631,371.559 39.602,371.426 39.818 M283.616 92.115 C 283.012 92.291,282.833 92.421,282.833 92.686 C 282.833 93.005,281.815 94.167,281.535 94.167 C 281.371 94.167,280.889 95.124,280.764 95.697 C 280.701 95.986,280.540 96.162,280.308 96.197 C 279.935 96.252,279.822 96.404,279.501 97.273 C 279.395 97.560,279.105 98.010,278.857 98.273 C 278.180 98.987,277.833 99.604,277.833 100.093 C 277.833 100.386,277.727 100.559,277.512 100.615 C 276.879 100.781,276.963 101.167,277.630 101.164 C 278.459 101.161,279.333 100.245,279.333 99.381 C 279.333 99.267,279.620 99.027,279.969 98.849 C 280.798 98.426,280.936 98.233,281.050 97.339 C 281.102 96.930,281.244 96.517,281.366 96.423 C 281.785 96.096,282.167 95.344,282.167 94.844 C 282.167 94.418,282.248 94.322,282.708 94.203 C 283.041 94.118,283.330 93.898,283.459 93.633 C 283.891 92.742,284.811 92.891,285.241 93.921 C 285.363 94.213,285.729 94.718,286.055 95.044 C 286.476 95.465,286.751 95.977,287.004 96.809 C 287.306 97.803,287.475 98.076,288.113 98.599 C 289.214 99.501,289.487 99.834,289.694 100.527 C 289.906 101.232,290.125 101.367,290.831 101.226 C 291.295 101.133,291.310 101.106,291.079 100.776 C 290.944 100.584,290.833 100.245,290.833 100.024 C 290.833 99.789,290.609 99.406,290.292 99.101 C 289.994 98.814,289.525 98.113,289.250 97.542 C 288.975 96.972,288.665 96.504,288.561 96.503 C 288.318 96.499,287.919 95.882,287.770 95.280 C 287.704 95.011,287.445 94.692,287.162 94.530 C 286.891 94.376,286.668 94.129,286.668 93.982 C 286.664 92.929,284.779 91.776,283.616 92.115 M227.214 92.186 C 226.838 92.562,227.324 94.422,227.840 94.586 C 228.037 94.648,228.274 95.077,228.511 95.799 C 228.712 96.414,229.049 97.067,229.261 97.250 C 229.472 97.433,229.843 98.035,230.084 98.587 C 230.370 99.243,230.687 99.685,230.999 99.864 C 231.348 100.064,231.491 100.288,231.530 100.694 C 231.623 101.662,233.833 101.622,233.833 100.653 C 233.833 100.373,233.908 100.005,234.000 99.834 C 234.226 99.411,233.739 99.265,232.587 99.409 C 231.579 99.535,231.167 99.282,231.167 98.535 C 231.167 97.865,230.641 96.621,230.214 96.280 C 230.005 96.113,229.832 95.813,229.830 95.613 C 229.824 95.080,229.273 93.955,228.771 93.453 C 228.530 93.212,228.333 92.905,228.333 92.769 C 228.333 92.207,227.584 91.816,227.214 92.186 M237.108 92.627 C 236.890 92.973,236.589 93.357,236.439 93.481 C 236.289 93.606,236.167 93.840,236.167 94.001 C 236.167 94.163,236.055 94.510,235.918 94.773 C 235.781 95.035,235.668 95.411,235.668 95.609 C 235.667 95.851,235.516 96.020,235.200 96.130 C 234.450 96.391,234.101 98.811,234.776 99.070 C 235.040 99.172,235.500 98.280,235.500 97.667 C 235.500 97.121,235.960 96.167,236.223 96.167 C 236.365 96.167,236.556 95.851,236.690 95.394 C 237.086 94.044,238.105 93.799,238.855 94.875 C 239.062 95.173,239.391 95.569,239.585 95.755 C 239.779 95.941,240.083 96.607,240.260 97.235 C 240.532 98.195,240.656 98.403,241.039 98.537 C 241.376 98.656,241.542 98.869,241.672 99.351 C 242.204 101.327,244.103 102.233,244.657 100.776 C 244.740 100.557,244.917 100.337,245.051 100.286 C 245.185 100.234,245.387 99.804,245.501 99.330 C 245.666 98.643,245.796 98.437,246.145 98.311 C 246.586 98.153,246.928 97.567,247.336 96.271 C 247.448 95.916,247.669 95.591,247.828 95.550 C 248.176 95.459,248.833 93.943,248.833 93.231 C 248.833 92.863,248.940 92.666,249.208 92.537 C 249.532 92.381,249.467 92.354,248.731 92.345 L 247.879 92.333 247.619 93.042 C 247.477 93.431,247.307 93.935,247.241 94.160 C 247.175 94.386,246.947 94.708,246.734 94.876 C 246.520 95.044,246.297 95.441,246.237 95.759 C 246.178 96.077,246.062 96.378,245.981 96.428 C 245.900 96.479,245.833 96.700,245.833 96.920 C 245.833 97.140,245.632 97.506,245.386 97.734 C 245.140 97.962,244.859 98.396,244.761 98.697 C 244.369 99.908,242.801 99.799,242.438 98.535 C 242.354 98.241,242.182 98.000,242.056 98.000 C 241.801 98.000,241.625 97.630,241.328 96.467 C 241.218 96.037,240.986 95.549,240.812 95.384 C 239.950 94.564,239.833 94.415,239.833 94.127 C 239.833 92.554,237.845 91.460,237.108 92.627 M148.635 92.542 C 148.356 93.041,148.401 100.763,148.685 101.105 C 149.282 101.824,149.564 101.274,149.678 99.167 C 149.735 98.120,149.866 97.270,150.003 97.052 C 150.201 96.740,150.199 96.621,149.992 96.232 C 149.713 95.706,149.723 92.917,150.006 92.576 C 150.126 92.432,150.097 92.342,149.907 92.269 C 149.358 92.059,148.844 92.169,148.635 92.542 M191.099 92.306 C 190.901 92.345,190.845 92.450,190.924 92.640 C 190.987 92.792,191.078 94.773,191.126 97.042 C 191.206 100.854,191.235 101.167,191.509 101.167 C 192.252 101.167,192.551 100.135,192.590 97.437 C 192.610 96.051,192.680 94.344,192.747 93.643 L 192.868 92.370 192.128 92.310 C 191.721 92.277,191.258 92.275,191.099 92.306 M321.979 92.442 C 321.449 93.081,321.632 101.196,322.179 101.291 C 322.703 101.383,322.837 101.046,322.974 99.293 C 323.067 98.109,323.205 97.383,323.393 97.096 C 323.654 96.697,323.655 96.637,323.401 96.250 C 323.134 95.842,323.034 93.205,323.264 92.607 C 323.318 92.465,323.204 92.338,322.968 92.274 C 322.381 92.117,322.227 92.143,321.979 92.442 M363.990 92.429 C 363.811 92.644,363.752 93.488,363.731 96.146 C 363.695 100.730,363.860 101.365,365.046 101.211 C 365.557 101.145,365.640 101.086,365.487 100.901 C 365.137 100.480,364.990 98.252,365.254 97.377 C 365.435 96.773,365.450 96.433,365.316 95.935 C 365.219 95.577,365.163 94.601,365.189 93.767 L 365.238 92.250 364.730 92.200 C 364.409 92.168,364.136 92.252,363.990 92.429 M62.922 93.232 C 61.926 94.026,62.797 95.500,64.262 95.500 C 65.293 95.500,65.333 95.442,64.732 94.814 C 64.492 94.565,64.247 94.119,64.187 93.823 C 64.015 92.980,63.525 92.752,62.922 93.232 M330.367 93.200 C 330.150 93.417,330.095 94.971,330.294 95.262 C 330.740 95.913,331.395 95.561,331.666 94.523 C 331.941 93.472,331.026 92.541,330.367 93.200 M103.041 93.949 C 101.419 95.533,101.368 98.662,102.958 99.076 C 103.165 99.129,103.333 99.272,103.333 99.394 C 103.333 99.862,103.969 100.235,104.417 100.030 C 104.959 99.783,104.944 99.688,104.257 98.980 C 103.077 97.765,103.066 95.555,104.234 94.474 C 104.804 93.946,104.886 93.793,104.733 93.546 C 104.388 92.990,103.905 93.105,103.041 93.949 M114.542 93.277 C 114.211 93.411,114.296 93.695,114.833 94.249 C 116.139 95.597,115.680 98.991,114.115 99.542 C 114.041 99.568,114.026 99.708,114.082 99.853 C 114.208 100.182,115.648 99.782,115.906 99.346 C 115.991 99.202,116.342 98.804,116.686 98.463 C 117.628 97.528,117.805 95.264,116.971 94.818 C 116.788 94.720,116.532 94.386,116.403 94.076 C 116.075 93.291,115.316 92.965,114.542 93.277 M327.407 96.576 C 327.102 96.804,327.133 96.839,327.958 97.192 C 328.440 97.398,328.833 97.651,328.833 97.754 C 328.833 98.030,329.561 98.667,329.876 98.667 C 330.328 98.667,330.363 98.380,330.007 97.598 C 329.820 97.187,329.667 96.735,329.667 96.592 C 329.667 96.241,327.872 96.227,327.407 96.576 M67.667 96.656 C 68.089 96.903,69.375 96.941,69.455 96.708 C 69.508 96.556,69.246 96.501,68.472 96.505 C 67.787 96.508,67.504 96.561,67.667 96.656 M70.242 97.724 C 70.075 98.387,70.390 100.088,70.672 100.049 C 71.733 99.901,72.131 99.598,72.231 98.864 C 72.357 97.947,72.345 97.930,71.346 97.603 C 70.310 97.265,70.358 97.259,70.242 97.724 M330.333 99.183 C 330.333 99.745,330.799 100.667,331.082 100.667 C 331.180 100.667,331.388 100.817,331.545 101.000 C 331.817 101.319,332.494 101.450,332.716 101.228 C 332.861 101.084,332.514 100.464,332.140 100.199 C 331.971 100.079,331.831 99.892,331.828 99.782 C 331.805 98.908,330.333 98.318,330.333 99.183 M105.440 100.782 C 105.145 101.077,105.454 101.165,106.708 101.143 L 108.083 101.119 106.993 101.007 C 106.393 100.946,105.822 100.846,105.724 100.786 C 105.627 100.725,105.499 100.724,105.440 100.782 M63.117 101.034 C 63.007 101.104,63.310 101.163,63.792 101.164 C 64.273 101.166,64.667 101.137,64.667 101.101 C 64.667 100.969,63.312 100.910,63.117 101.034 M112.000 101.012 L 111.250 101.117 112.208 101.142 C 112.735 101.155,113.167 101.137,113.167 101.101 C 113.167 100.949,112.701 100.914,112.000 101.012 M68.377 101.120 C 68.631 101.158,69.006 101.157,69.211 101.117 C 69.416 101.078,69.208 101.046,68.750 101.048 C 68.292 101.049,68.124 101.081,68.377 101.120 " stroke="none" fill="#424142" fill-rule="evenodd"></path><path id="path2" d="M-0.000 12.661 L -0.000 25.322 20.208 25.369 C 42.959 25.423,41.385 25.462,41.842 24.822 C 42.181 24.345,42.376 2.617,42.059 0.635 L 41.957 -0.000 20.979 -0.000 L 0.000 0.000 -0.000 12.661 M46.422 1.708 C 46.133 6.220,46.398 24.617,46.759 25.101 C 47.630 26.267,46.074 26.189,68.197 26.173 L 88.083 26.158 88.667 25.576 L 89.250 24.995 89.295 12.497 C 89.339 0.181,89.335 -0.000,89.013 -0.000 C 88.691 -0.000,88.686 0.193,88.691 12.266 L 88.695 24.531 88.319 24.932 L 87.942 25.333 68.218 25.333 L 48.493 25.333 47.830 24.915 C 47.465 24.684,47.165 24.366,47.162 24.206 C 47.108 20.857,47.203 1.934,47.278 1.125 C 47.381 0.003,47.380 0.000,46.957 0.000 C 46.536 0.000,46.531 0.017,46.422 1.708 M40.307 23.520 C 40.623 24.026,40.340 24.225,39.503 24.084 L 38.808 23.966 39.362 23.575 C 40.049 23.090,40.039 23.090,40.307 23.520 M0.958 28.456 C 0.357 28.494,-0.000 28.591,-0.000 28.717 C -0.000 28.871,4.723 28.917,20.759 28.917 L 41.519 28.917 41.839 29.333 C 42.149 29.736,42.159 30.189,42.163 42.846 L 42.167 55.942 41.773 56.312 L 41.379 56.681 20.690 56.671 C 2.212 56.661,0.000 56.687,0.000 56.915 C 0.000 57.143,2.220 57.166,20.912 57.127 L 41.824 57.083 42.204 56.704 L 42.583 56.324 42.583 42.751 C 42.583 27.426,42.708 28.730,41.219 28.485 C 40.451 28.359,2.940 28.332,0.958 28.456 M47.888 28.743 C 47.597 28.869,47.273 29.135,47.167 29.333 C 46.908 29.816,46.891 50.151,47.148 50.633 C 47.487 51.265,48.708 51.682,49.682 51.497 C 50.783 51.288,52.546 51.287,53.641 51.495 C 54.348 51.629,54.617 51.605,55.208 51.351 C 56.444 50.821,56.375 51.288,56.397 43.290 C 56.421 34.634,56.277 35.215,58.539 34.590 C 59.529 34.316,82.199 34.187,85.917 34.434 C 88.502 34.606,88.896 34.224,88.932 31.513 C 88.956 29.649,88.782 28.996,88.176 28.672 C 87.635 28.382,48.558 28.452,47.888 28.743 M49.741 29.770 C 50.001 29.869,49.380 30.964,48.965 31.139 C 48.893 31.169,48.833 31.538,48.833 31.958 C 48.833 33.137,48.724 32.739,48.605 31.125 L 48.498 29.667 48.985 29.667 C 49.253 29.667,49.594 29.713,49.741 29.770 M86.986 30.018 C 86.712 30.118,86.408 30.117,86.152 30.015 C 85.814 29.880,85.882 29.855,86.583 29.857 C 87.302 29.859,87.358 29.881,86.986 30.018 M364.873 32.329 C 364.412 32.824,364.062 35.408,364.318 36.426 C 364.451 36.951,364.462 37.372,364.355 37.726 C 364.120 38.498,363.771 41.493,363.900 41.622 C 364.051 41.773,365.800 41.958,365.980 41.842 C 366.438 41.550,366.832 40.525,366.833 39.627 C 366.834 37.842,368.284 37.565,369.078 39.197 C 369.252 39.556,369.684 40.128,370.038 40.467 C 370.392 40.806,370.834 41.327,371.021 41.625 C 371.340 42.134,371.418 42.167,372.321 42.167 C 373.741 42.167,374.282 41.451,373.425 40.705 C 373.201 40.510,372.936 40.047,372.836 39.675 C 372.732 39.291,372.483 38.888,372.259 38.741 C 372.042 38.599,371.817 38.280,371.758 38.033 C 371.699 37.786,371.614 37.460,371.570 37.310 C 371.514 37.119,371.643 36.983,371.996 36.860 C 373.172 36.450,373.024 33.000,371.831 33.000 C 371.650 33.000,371.302 32.775,371.057 32.500 L 370.612 32.000 367.896 32.000 C 365.405 32.000,365.154 32.027,364.873 32.329 M87.417 32.500 L 88.083 32.809 86.583 32.809 L 85.083 32.809 85.750 32.500 C 86.117 32.330,86.492 32.191,86.583 32.191 C 86.675 32.191,87.050 32.330,87.417 32.500 M59.958 32.786 C 59.706 32.824,59.294 32.824,59.042 32.786 C 58.790 32.748,58.996 32.717,59.500 32.717 C 60.004 32.717,60.210 32.748,59.958 32.786 M366.816 33.519 C 367.037 33.915,367.026 34.035,366.692 34.811 C 365.879 36.700,366.946 37.140,370.083 36.210 C 370.813 35.993,370.855 35.310,370.178 34.678 C 369.897 34.415,369.667 34.091,369.667 33.959 C 369.667 33.646,370.278 33.085,370.358 33.325 C 370.391 33.423,370.754 33.561,371.164 33.631 C 372.545 33.866,372.856 36.500,371.504 36.500 C 370.733 36.500,370.978 38.362,371.858 39.183 C 372.576 39.853,372.666 40.334,372.167 40.833 C 371.713 41.287,371.614 41.262,371.012 40.542 C 370.725 40.198,370.312 39.729,370.095 39.500 C 369.878 39.271,369.578 38.840,369.429 38.542 C 369.280 38.244,369.140 38.000,369.118 38.000 C 369.097 38.000,368.696 37.860,368.228 37.689 C 366.941 37.219,366.311 37.827,366.381 39.475 C 366.429 40.605,366.023 41.097,365.487 40.561 C 364.975 40.049,364.874 34.296,365.363 33.492 C 365.756 32.845,366.447 32.858,366.816 33.519 M369.396 35.246 L 369.876 35.659 369.480 35.807 C 368.774 36.070,367.348 36.135,367.163 35.912 C 366.400 34.993,368.406 34.395,369.396 35.246 M82.621 36.126 L 59.991 36.168 59.329 36.606 C 58.795 36.959,58.666 37.145,58.663 37.564 C 58.661 37.850,58.658 48.429,58.657 61.074 L 58.655 84.066 59.193 84.491 C 59.957 85.094,59.933 85.092,65.028 85.000 L 69.639 84.917 69.986 84.516 C 70.177 84.296,70.336 83.996,70.340 83.849 C 70.343 83.703,70.341 79.365,70.334 74.209 C 70.325 68.221,70.381 64.722,70.488 64.522 C 70.851 63.844,71.551 63.815,86.918 63.843 C 97.706 63.863,101.714 63.820,101.976 63.679 C 102.841 63.216,103.127 62.124,103.038 59.623 L 102.956 57.330 102.389 56.831 C 102.077 56.557,101.731 56.330,101.619 56.326 C 101.508 56.322,94.576 56.303,86.214 56.284 C 71.873 56.252,70.995 56.233,70.714 55.953 C 70.416 55.654,70.141 45.454,70.404 44.407 C 70.588 43.673,70.968 43.658,89.508 43.671 C 99.131 43.678,107.086 43.633,107.186 43.571 C 107.953 43.097,108.176 37.393,107.458 36.609 C 106.948 36.051,108.318 36.078,82.621 36.126 M118.103 36.326 C 117.370 36.829,117.344 36.959,117.339 40.217 C 117.330 45.062,117.049 44.833,123.000 44.833 C 128.950 44.833,128.667 45.065,128.667 40.206 L 128.667 37.062 128.185 36.601 L 127.703 36.139 123.079 36.111 C 119.274 36.088,118.393 36.126,118.103 36.326 M178.812 36.112 C 177.558 36.262,177.417 36.638,177.417 39.822 C 177.417 42.830,177.549 43.422,178.262 43.601 C 178.465 43.652,183.270 43.706,188.940 43.722 C 197.445 43.745,199.330 43.791,199.708 43.985 L 200.167 44.220 200.167 64.043 C 200.167 85.667,200.123 84.663,201.071 84.897 C 201.803 85.078,210.600 85.047,210.944 84.863 C 211.912 84.345,211.856 85.654,211.839 64.096 L 211.823 44.378 212.287 44.064 C 212.725 43.767,213.323 43.745,223.417 43.662 C 229.283 43.614,234.094 43.558,234.106 43.537 C 234.592 42.736,234.667 42.220,234.667 39.675 L 234.667 36.984 234.226 36.575 L 233.785 36.167 207.332 36.167 C 192.783 36.167,180.551 36.138,180.148 36.103 C 179.746 36.068,179.145 36.072,178.812 36.112 M330.318 36.417 C 330.057 36.600,329.804 36.848,329.756 36.968 C 329.474 37.681,329.668 84.023,329.955 84.422 C 330.377 85.009,330.438 85.015,335.565 84.963 L 340.214 84.917 340.557 84.457 C 340.890 84.011,340.898 83.831,340.853 78.033 L 340.805 72.067 341.343 71.203 C 341.694 70.637,342.095 70.237,342.502 70.044 C 342.843 69.882,343.276 69.517,343.464 69.233 C 343.982 68.446,345.273 68.287,345.750 68.952 C 345.933 69.207,346.365 69.686,346.708 70.016 C 347.052 70.346,347.333 70.698,347.333 70.799 C 347.333 70.900,347.600 71.187,347.926 71.435 C 348.253 71.684,348.626 72.093,348.756 72.345 C 348.886 72.596,349.256 72.965,349.579 73.164 C 349.902 73.364,350.166 73.615,350.165 73.722 C 350.164 73.829,350.460 74.217,350.823 74.583 C 351.789 75.558,352.702 76.527,354.667 78.664 C 355.629 79.711,356.604 80.757,356.833 80.990 C 357.063 81.223,357.831 82.045,358.542 82.817 C 360.623 85.079,360.744 85.099,372.329 85.144 C 373.566 85.149,373.788 83.948,372.731 82.972 C 372.399 82.667,371.912 82.192,371.648 81.917 C 371.384 81.642,371.111 81.366,371.042 81.304 C 370.630 80.933,370.023 80.336,369.624 79.909 C 369.372 79.638,369.034 79.290,368.874 79.135 C 368.617 78.885,367.043 77.260,361.073 71.083 C 360.187 70.167,358.121 68.055,356.481 66.390 C 354.842 64.725,353.500 63.292,353.500 63.206 C 353.500 62.759,354.361 61.861,355.239 61.393 C 355.779 61.106,356.340 60.718,356.485 60.532 C 356.631 60.347,357.050 60.072,357.417 59.922 C 357.783 59.772,358.271 59.474,358.500 59.259 C 358.729 59.045,359.341 58.633,359.860 58.344 C 360.379 58.055,360.847 57.705,360.900 57.567 C 360.953 57.429,361.372 57.160,361.831 56.969 C 362.291 56.778,362.667 56.561,362.667 56.485 C 362.667 56.410,363.210 56.028,363.875 55.637 C 364.540 55.246,365.181 54.793,365.301 54.630 C 365.420 54.468,365.883 54.178,366.330 53.985 C 366.777 53.793,367.181 53.538,367.227 53.417 C 367.273 53.297,367.807 52.954,368.414 52.656 C 369.021 52.357,369.595 51.968,369.690 51.791 C 369.784 51.613,370.192 51.323,370.595 51.144 C 371.427 50.776,371.722 50.360,371.572 49.764 C 371.402 49.089,370.920 49.048,364.302 49.152 L 358.021 49.250 357.552 49.680 C 357.294 49.916,356.652 50.389,356.125 50.730 C 355.598 51.072,355.167 51.410,355.167 51.482 C 355.167 51.555,354.793 51.817,354.337 52.065 C 353.880 52.314,353.412 52.652,353.295 52.818 C 353.179 52.983,352.767 53.280,352.380 53.477 C 351.993 53.674,351.430 54.050,351.130 54.311 C 350.829 54.573,350.321 54.921,350.000 55.085 C 349.679 55.249,349.318 55.523,349.197 55.695 C 349.076 55.866,348.626 56.184,348.197 56.402 C 347.768 56.619,347.267 56.964,347.083 57.167 C 346.900 57.370,346.412 57.708,346.000 57.918 C 345.587 58.128,345.064 58.500,344.836 58.744 C 344.608 58.988,344.176 59.305,343.875 59.448 C 343.574 59.590,343.201 59.923,343.045 60.186 C 342.754 60.679,342.092 60.916,341.313 60.806 L 340.917 60.750 340.888 48.850 L 340.859 36.950 340.469 36.560 C 339.896 35.987,331.109 35.863,330.318 36.417 M375.934 36.597 C 375.779 37.003,375.815 37.635,376.000 37.750 C 376.102 37.813,376.167 37.557,376.167 37.093 C 376.167 36.295,376.103 36.158,375.934 36.597 M106.260 36.665 C 107.267 36.668,107.350 36.861,107.416 39.340 C 107.463 41.120,107.335 42.643,107.105 43.038 C 107.093 43.058,98.882 43.115,88.859 43.163 L 70.635 43.250 70.235 43.750 L 69.835 44.250 69.834 49.833 C 69.834 56.074,69.889 56.424,70.917 56.702 C 71.192 56.776,78.189 56.830,86.467 56.822 C 99.939 56.808,101.560 56.834,101.921 57.071 C 102.670 57.562,102.584 62.032,101.809 62.889 C 101.545 63.181,100.838 63.196,86.165 63.222 L 70.797 63.250 70.310 63.833 L 69.824 64.416 69.839 74.151 C 69.853 83.338,69.837 83.904,69.552 84.189 C 68.794 84.946,59.340 84.575,59.331 83.787 C 59.330 83.675,59.331 73.165,59.333 60.431 C 59.338 36.265,59.318 36.952,60.026 36.690 C 60.250 36.607,77.353 36.598,106.260 36.665 M127.845 36.941 C 128.343 37.446,128.367 43.132,127.873 43.662 C 127.348 44.226,118.672 44.246,118.111 43.685 C 117.593 43.167,117.661 37.277,118.189 36.849 C 118.722 36.417,127.409 36.500,127.845 36.941 M207.167 36.670 C 228.992 36.676,233.635 36.716,233.878 36.901 C 234.337 37.249,234.387 42.043,233.938 42.708 L 233.628 43.167 223.145 43.167 C 212.339 43.167,212.443 43.161,211.625 43.817 C 211.350 44.038,211.333 45.199,211.333 63.930 L 211.333 83.809 210.839 84.196 L 210.345 84.583 205.761 84.500 C 201.913 84.430,201.136 84.375,200.919 84.157 C 200.688 83.926,200.656 81.727,200.622 63.914 L 200.583 43.930 200.017 43.548 L 199.451 43.167 189.330 43.167 C 177.989 43.167,178.301 43.187,178.028 42.431 C 177.747 41.654,177.768 37.486,178.055 37.094 C 178.316 36.737,179.339 36.495,180.167 36.593 C 180.487 36.632,192.637 36.666,207.167 36.670 M340.157 36.919 C 340.387 37.149,340.420 38.531,340.442 48.905 C 340.455 55.355,340.514 60.783,340.573 60.967 C 340.727 61.454,341.123 61.741,341.375 61.550 C 341.490 61.463,341.894 61.303,342.273 61.195 C 342.725 61.066,343.115 60.798,343.406 60.416 C 343.650 60.095,343.951 59.833,344.073 59.833 C 344.196 59.833,344.586 59.573,344.940 59.255 C 345.294 58.937,346.007 58.449,346.524 58.171 C 347.041 57.893,347.509 57.550,347.563 57.409 C 347.618 57.267,347.914 57.046,348.221 56.918 C 348.529 56.789,349.106 56.412,349.504 56.080 C 349.902 55.748,350.517 55.328,350.872 55.147 C 351.226 54.966,351.554 54.719,351.601 54.597 C 351.648 54.475,352.054 54.175,352.505 53.930 C 352.955 53.685,353.368 53.413,353.422 53.325 C 353.476 53.237,354.041 52.825,354.677 52.410 C 355.313 51.995,355.833 51.600,355.833 51.532 C 355.833 51.464,356.115 51.263,356.458 51.085 C 356.802 50.907,357.328 50.553,357.628 50.299 C 358.367 49.673,358.184 49.691,364.641 49.620 C 369.885 49.561,370.396 49.580,370.723 49.845 C 371.117 50.164,370.768 50.833,370.208 50.833 C 370.075 50.833,369.761 51.054,369.509 51.323 C 369.258 51.593,368.646 52.005,368.151 52.241 C 367.655 52.476,367.025 52.877,366.750 53.133 C 366.475 53.388,366.009 53.696,365.715 53.816 C 365.420 53.937,364.963 54.234,364.699 54.476 C 364.435 54.718,363.851 55.126,363.401 55.383 C 362.305 56.007,361.010 56.888,360.502 57.355 C 360.273 57.564,359.735 57.926,359.304 58.160 C 358.531 58.578,356.212 60.128,355.797 60.503 C 355.680 60.610,355.142 60.934,354.602 61.223 C 353.385 61.877,352.665 62.953,353.064 63.523 C 353.269 63.816,356.589 67.245,364.667 75.509 C 365.813 76.681,367.800 78.714,369.083 80.027 C 370.367 81.340,371.698 82.621,372.042 82.875 C 372.739 83.388,372.828 83.802,372.339 84.245 C 371.906 84.637,361.597 84.646,360.848 84.256 C 360.425 84.035,359.337 82.933,356.167 79.517 C 355.296 78.579,354.096 77.295,353.500 76.666 C 352.904 76.036,351.704 74.760,350.833 73.830 C 349.962 72.900,348.594 71.457,347.792 70.623 C 346.990 69.790,346.333 69.049,346.333 68.977 C 346.333 68.020,344.146 67.862,343.305 68.759 C 343.000 69.085,342.393 69.572,341.956 69.842 C 340.459 70.768,340.501 70.542,340.501 77.625 C 340.500 85.423,341.203 84.500,335.262 84.500 L 330.691 84.500 330.387 84.114 C 329.923 83.523,330.077 37.141,330.545 36.799 C 331.016 36.454,339.802 36.564,340.157 36.919 M48.971 48.831 C 49.034 48.878,49.289 49.191,49.539 49.525 C 50.042 50.201,49.948 50.333,48.964 50.333 L 48.455 50.333 48.561 49.560 C 48.619 49.135,48.680 48.441,48.696 48.018 L 48.725 47.250 48.791 47.997 C 48.827 48.408,48.908 48.783,48.971 48.831 M54.728 48.875 L 54.835 50.333 54.348 50.333 C 53.340 50.333,53.273 50.191,53.913 49.411 C 54.380 48.840,54.500 48.549,54.500 47.986 C 54.500 46.857,54.611 47.291,54.728 48.875 M162.250 48.308 C 161.883 48.374,161.485 48.489,161.364 48.564 C 161.244 48.639,160.202 48.874,159.050 49.086 C 157.497 49.373,156.668 49.622,155.852 50.049 C 155.246 50.365,154.513 50.676,154.224 50.739 C 153.934 50.802,153.343 51.105,152.910 51.413 C 151.923 52.115,151.716 52.035,151.574 50.897 C 151.362 49.202,151.548 49.263,146.307 49.163 C 141.496 49.072,141.027 49.122,140.292 49.804 L 139.833 50.229 139.833 67.040 L 139.833 83.851 140.292 84.322 C 140.999 85.048,141.427 85.096,146.307 85.003 C 150.847 84.917,150.865 84.915,151.182 84.523 C 151.488 84.144,151.500 83.693,151.500 72.261 C 151.500 61.174,151.519 60.373,151.792 60.112 C 153.224 58.741,153.716 58.333,153.939 58.333 C 154.189 58.333,155.020 57.817,155.466 57.385 C 155.584 57.270,155.997 57.092,156.382 56.989 C 156.768 56.887,157.571 56.584,158.167 56.316 C 160.277 55.368,164.923 54.988,167.342 55.567 C 168.220 55.777,170.500 57.194,170.500 57.530 C 170.500 57.605,170.631 57.799,170.792 57.961 C 171.598 58.774,171.578 58.455,171.667 71.667 C 171.749 83.958,171.753 84.087,172.096 84.430 C 172.679 85.012,172.932 85.038,177.833 85.015 L 182.583 84.992 183.042 84.494 L 183.500 83.995 183.494 72.539 C 183.488 60.198,183.399 58.063,182.861 57.336 C 182.679 57.089,182.433 56.556,182.316 56.152 C 181.980 55.000,180.644 53.158,179.531 52.315 C 179.193 52.059,178.729 51.687,178.500 51.489 C 178.271 51.291,177.821 51.015,177.500 50.875 C 177.179 50.736,176.654 50.479,176.333 50.303 C 175.049 49.599,174.324 49.376,172.190 49.025 C 170.965 48.823,169.802 48.572,169.606 48.466 C 169.196 48.244,163.305 48.118,162.250 48.308 M262.250 48.431 C 261.792 48.574,260.653 48.860,259.719 49.066 C 258.725 49.286,257.758 49.613,257.386 49.855 C 256.717 50.291,255.263 51.000,255.039 51.000 C 254.967 51.000,254.710 51.225,254.468 51.500 C 253.804 52.257,253.342 51.901,253.336 50.628 C 253.334 50.365,253.139 49.961,252.875 49.674 L 252.417 49.175 247.750 49.152 C 242.958 49.128,242.679 49.157,242.046 49.742 L 241.676 50.084 241.667 66.917 C 241.662 76.175,241.660 83.834,241.662 83.936 C 241.665 84.038,241.969 84.331,242.339 84.587 L 243.011 85.053 247.714 85.022 L 252.417 84.991 252.875 84.493 L 253.333 83.995 253.333 72.229 L 253.333 60.464 254.259 59.553 C 254.768 59.052,255.451 58.531,255.777 58.395 C 256.103 58.258,256.728 57.900,257.166 57.599 C 257.772 57.183,258.276 57.003,259.273 56.847 C 259.994 56.735,260.881 56.566,261.244 56.472 C 262.241 56.214,266.249 56.270,267.344 56.556 C 268.834 56.946,270.199 56.463,270.397 55.474 C 270.621 54.353,270.512 49.925,270.251 49.552 C 269.391 48.325,264.693 47.666,262.250 48.431 M291.493 48.315 C 290.893 48.383,290.318 48.490,290.215 48.554 C 290.111 48.618,288.840 48.820,287.388 49.004 C 284.388 49.384,283.814 49.518,282.417 50.165 C 281.867 50.419,281.154 50.683,280.833 50.751 C 280.067 50.912,279.396 51.262,279.282 51.560 C 279.231 51.692,278.904 51.890,278.553 52.001 C 278.203 52.112,277.692 52.421,277.417 52.689 C 274.974 55.068,274.885 55.171,274.563 56.000 C 274.402 56.413,274.143 56.843,273.986 56.956 C 273.278 57.467,273.182 60.015,273.845 60.679 C 274.229 61.062,283.015 61.182,283.704 60.813 C 284.290 60.500,284.851 59.795,285.276 58.839 C 285.908 57.415,287.624 56.113,289.618 55.543 C 292.478 54.726,302.525 55.240,303.667 56.263 C 303.896 56.468,304.357 56.748,304.692 56.886 C 305.166 57.081,305.327 57.259,305.422 57.693 C 305.489 57.999,305.721 58.639,305.939 59.114 C 306.204 59.695,306.333 60.285,306.333 60.910 C 306.333 62.206,306.380 62.195,300.500 62.272 C 295.286 62.340,290.090 62.688,288.735 63.060 C 287.328 63.446,286.308 63.653,284.522 63.913 C 283.515 64.059,282.576 64.296,282.272 64.481 C 281.985 64.656,281.203 64.952,280.533 65.139 C 279.864 65.326,279.077 65.630,278.783 65.815 C 278.490 66.000,277.837 66.353,277.333 66.599 C 276.829 66.845,276.267 67.212,276.083 67.415 C 275.900 67.618,275.508 67.908,275.213 68.060 C 274.918 68.212,274.590 68.505,274.484 68.710 C 274.378 68.915,274.085 69.251,273.831 69.456 C 273.578 69.661,273.319 70.036,273.257 70.289 C 273.194 70.543,272.957 70.946,272.729 71.185 C 271.504 72.473,271.504 77.101,272.729 78.707 C 272.970 79.023,273.167 79.368,273.167 79.474 C 273.167 79.730,275.188 81.833,275.434 81.833 C 275.540 81.833,275.842 82.053,276.105 82.320 C 276.368 82.588,276.965 82.958,277.432 83.141 C 277.899 83.324,278.556 83.661,278.893 83.890 C 279.229 84.118,279.806 84.356,280.175 84.418 C 280.543 84.480,281.686 84.793,282.714 85.112 C 286.246 86.210,295.539 86.256,298.182 85.188 C 298.403 85.099,299.108 84.911,299.750 84.769 C 300.392 84.628,301.442 84.397,302.083 84.255 C 302.725 84.113,303.328 83.892,303.422 83.765 C 304.159 82.779,306.055 82.880,306.505 83.929 C 306.964 84.999,306.969 85.000,312.114 84.997 C 316.962 84.995,316.933 84.998,317.385 84.338 C 317.779 83.761,317.808 61.693,317.418 58.760 C 317.155 56.789,316.283 54.877,315.146 53.779 C 314.877 53.520,314.536 53.122,314.387 52.895 C 314.238 52.667,313.808 52.326,313.433 52.137 C 313.057 51.947,312.623 51.660,312.468 51.497 C 312.313 51.335,311.826 51.073,311.385 50.917 C 310.328 50.540,310.088 50.441,308.975 49.919 C 308.260 49.584,307.334 49.381,305.126 49.078 C 303.526 48.858,302.000 48.591,301.734 48.484 C 301.165 48.257,293.181 48.125,291.493 48.315 M169.917 49.177 C 171.963 49.399,174.441 49.948,175.158 50.337 C 175.483 50.514,176.181 50.816,176.708 51.008 C 177.235 51.200,177.667 51.414,177.667 51.484 C 177.667 51.554,178.023 51.843,178.458 52.127 C 179.758 52.973,181.206 54.657,181.648 55.833 C 181.768 56.154,181.932 56.567,182.012 56.750 C 182.760 58.464,182.726 57.886,182.826 70.917 C 182.877 77.700,182.956 83.325,183.000 83.417 C 183.044 83.508,182.949 83.771,182.787 84.000 L 182.494 84.417 178.159 84.500 C 173.976 84.580,173.398 84.536,172.621 84.075 C 172.344 83.910,172.324 83.184,172.283 71.991 C 172.230 57.429,172.322 57.928,169.311 55.871 C 167.917 54.919,164.045 54.550,160.750 55.056 C 159.062 55.316,154.986 56.863,154.582 57.398 C 154.489 57.520,154.039 57.812,153.582 58.047 C 150.867 59.439,150.950 58.954,151.025 73.120 C 151.079 83.203,151.065 83.840,150.785 84.120 C 150.293 84.612,142.033 84.725,141.215 84.250 L 140.641 83.917 140.650 67.458 C 140.654 58.406,140.660 50.789,140.663 50.531 C 140.670 49.651,141.180 49.569,146.223 49.636 L 150.696 49.696 150.931 50.259 C 151.061 50.569,151.167 51.025,151.167 51.273 C 151.167 52.430,152.786 52.644,153.651 51.602 C 153.765 51.464,154.247 51.225,154.721 51.071 C 155.195 50.917,155.992 50.600,156.491 50.368 C 159.262 49.077,164.624 48.601,169.917 49.177 M267.998 49.000 C 268.451 49.000,268.773 49.141,269.233 49.542 L 269.854 50.083 269.861 52.434 C 269.869 55.806,269.411 56.506,267.569 55.931 C 265.030 55.139,257.330 56.162,256.401 57.414 C 256.300 57.549,255.920 57.793,255.557 57.956 C 255.193 58.119,254.431 58.700,253.864 59.248 L 252.833 60.243 252.833 72.006 C 252.833 81.897,252.796 83.821,252.597 84.093 C 252.237 84.585,243.916 84.748,242.972 84.281 C 242.171 83.885,242.239 85.742,242.333 66.836 L 242.417 50.088 242.911 49.851 C 243.298 49.665,244.216 49.620,247.164 49.640 C 249.232 49.655,251.203 49.667,251.545 49.667 C 252.414 49.667,252.833 50.125,252.833 51.074 C 252.833 52.401,253.780 52.704,254.970 51.758 C 255.366 51.443,256.041 51.055,256.470 50.896 C 256.899 50.737,257.438 50.480,257.667 50.324 C 258.812 49.545,263.028 48.805,265.651 48.922 C 266.605 48.965,267.661 49.000,267.998 49.000 M299.500 49.005 C 303.712 49.266,307.196 49.784,308.380 50.324 C 308.767 50.501,309.621 50.801,310.279 50.992 C 310.936 51.183,311.499 51.399,311.529 51.470 C 311.559 51.542,312.062 51.890,312.648 52.243 C 314.876 53.587,316.371 55.850,316.895 58.672 C 317.315 60.934,317.325 83.716,316.906 84.179 C 316.632 84.481,316.346 84.500,312.083 84.500 C 306.961 84.500,307.200 84.561,306.662 83.108 L 306.405 82.417 305.578 82.475 C 305.122 82.507,304.675 82.588,304.583 82.655 C 304.492 82.721,304.042 82.910,303.583 83.075 C 303.125 83.239,302.574 83.483,302.359 83.618 C 301.998 83.843,300.725 84.119,295.917 85.012 C 293.550 85.452,286.174 85.397,284.333 84.926 C 283.737 84.773,282.612 84.508,281.833 84.336 C 280.205 83.977,279.847 83.861,279.500 83.581 C 279.362 83.470,278.875 83.243,278.417 83.077 C 277.958 82.911,277.283 82.564,276.917 82.306 C 276.550 82.048,275.930 81.630,275.540 81.377 C 275.149 81.124,274.790 80.792,274.742 80.640 C 274.693 80.488,274.462 80.238,274.228 80.084 C 273.994 79.931,273.649 79.458,273.461 79.034 C 273.273 78.610,273.023 78.166,272.905 78.048 C 271.630 76.773,272.448 71.654,274.240 69.691 C 275.237 68.599,275.719 68.167,275.940 68.167 C 276.063 68.167,276.258 68.013,276.374 67.825 C 276.625 67.414,279.847 65.828,281.250 65.424 C 281.800 65.266,282.737 64.959,283.333 64.742 C 283.929 64.525,285.729 64.150,287.333 63.909 C 288.938 63.667,290.925 63.361,291.750 63.229 C 292.737 63.071,295.426 62.948,299.612 62.869 L 305.973 62.750 306.422 62.333 C 307.427 61.402,306.479 57.454,305.032 56.547 C 304.785 56.393,304.317 56.061,303.991 55.811 C 302.303 54.516,295.349 54.114,290.083 55.006 C 287.804 55.393,285.871 56.637,285.000 58.280 C 284.679 58.885,284.142 59.602,283.807 59.873 L 283.199 60.366 279.058 60.342 C 274.261 60.315,274.276 60.317,273.919 59.564 C 273.618 58.930,273.681 58.570,274.249 57.667 C 274.451 57.346,274.780 56.708,274.981 56.250 C 275.182 55.792,275.525 55.229,275.744 55.000 C 277.202 53.473,278.343 52.482,278.866 52.289 C 279.077 52.211,279.587 51.932,280.000 51.670 C 280.412 51.407,281.207 51.075,281.765 50.932 C 282.324 50.788,283.117 50.523,283.527 50.341 C 284.743 49.803,288.395 49.256,292.382 49.015 C 295.631 48.819,296.473 48.818,299.500 49.005 M117.757 49.623 L 117.333 50.080 117.333 67.003 C 117.333 85.092,117.302 84.337,118.074 84.872 C 118.278 85.014,127.244 85.042,127.763 84.903 C 128.703 84.650,128.667 85.370,128.667 67.053 C 128.667 49.084,128.698 49.830,127.926 49.294 C 127.829 49.227,125.597 49.171,122.965 49.169 L 118.180 49.167 117.757 49.623 M127.970 50.047 C 128.112 50.219,128.164 54.637,128.169 67.074 L 128.176 83.869 127.813 84.185 C 127.256 84.667,118.539 84.670,118.103 84.188 C 117.662 83.701,117.687 50.184,118.128 49.922 C 118.459 49.725,127.105 49.520,127.514 49.699 C 127.659 49.763,127.864 49.919,127.970 50.047 M1.042 62.133 L 0.000 62.183 0.000 81.326 L 0.000 100.470 1.375 100.578 C 2.131 100.637,11.473 100.662,22.135 100.634 L 41.519 100.583 41.839 100.167 C 42.150 99.762,42.159 99.237,42.163 81.321 L 42.167 62.891 41.771 62.520 L 41.375 62.148 21.729 62.116 C 10.924 62.098,1.615 62.106,1.042 62.133 M40.331 63.375 C 40.322 64.052,39.832 64.120,39.495 63.491 C 39.341 63.203,39.378 63.167,39.827 63.167 C 40.122 63.167,40.332 63.254,40.331 63.375 M296.667 68.186 C 293.154 68.349,292.094 68.488,289.917 69.071 C 287.040 69.842,286.414 70.102,285.598 70.862 C 285.418 71.029,285.215 71.167,285.148 71.167 C 283.886 71.167,282.701 74.848,283.484 76.333 C 284.813 78.852,290.243 80.349,295.293 79.589 C 298.724 79.072,301.898 78.278,302.472 77.791 C 302.625 77.662,303.103 77.426,303.533 77.268 C 304.454 76.928,306.535 75.283,306.692 74.771 C 306.910 74.056,306.847 68.915,306.615 68.599 C 306.176 67.998,303.303 67.878,296.667 68.186 M305.740 68.757 L 306.355 69.013 306.302 71.951 C 306.267 73.934,306.189 74.910,306.063 74.952 C 305.960 74.986,305.363 75.422,304.736 75.922 C 304.028 76.486,303.274 76.924,302.745 77.078 C 302.277 77.214,301.726 77.471,301.521 77.649 C 301.276 77.861,300.591 78.065,299.532 78.241 C 298.644 78.388,297.569 78.578,297.144 78.664 C 294.397 79.215,290.007 79.215,288.594 78.664 C 288.405 78.590,287.702 78.440,287.033 78.331 C 286.363 78.222,285.726 78.023,285.616 77.888 C 285.355 77.567,285.038 77.266,284.373 76.707 C 282.842 75.421,283.777 72.211,285.966 71.234 C 286.267 71.100,286.554 70.886,286.603 70.760 C 286.714 70.469,287.315 70.237,288.583 69.996 C 289.133 69.891,290.296 69.622,291.167 69.397 C 294.325 68.582,304.275 68.145,305.740 68.757 M66.751 90.623 C 66.476 90.664,66.212 90.759,66.165 90.836 C 66.118 90.912,65.409 91.092,64.591 91.235 L 63.103 91.494 62.143 92.539 C 61.113 93.658,60.989 94.060,61.476 94.686 C 61.647 94.904,61.911 95.326,62.063 95.623 C 62.280 96.045,62.505 96.205,63.092 96.353 C 63.506 96.457,63.935 96.664,64.047 96.813 C 64.474 97.382,64.859 97.528,66.286 97.662 C 68.831 97.901,69.167 98.045,69.167 98.897 C 69.167 99.585,69.141 99.622,68.522 99.807 C 67.232 100.194,64.860 99.946,64.002 99.335 C 62.223 98.068,60.039 100.114,61.553 101.629 L 62.007 102.083 65.962 102.138 C 70.425 102.199,70.906 102.123,71.573 101.249 C 71.817 100.929,72.113 100.667,72.229 100.667 C 73.283 100.667,73.577 97.664,72.572 97.161 C 72.291 97.021,71.801 96.646,71.483 96.328 C 70.961 95.805,70.765 95.731,69.446 95.551 C 68.307 95.396,67.877 95.259,67.481 94.926 C 67.202 94.692,66.886 94.500,66.779 94.499 C 66.671 94.499,66.325 94.341,66.008 94.148 L 65.433 93.798 65.842 93.571 C 66.621 93.140,70.500 93.363,70.500 93.839 C 70.500 94.211,71.682 93.376,71.842 92.891 C 72.169 91.901,71.662 91.421,70.008 91.155 C 69.473 91.069,68.821 90.887,68.559 90.750 C 68.089 90.505,67.727 90.480,66.751 90.623 M109.001 90.622 C 108.680 90.662,108.329 90.768,108.220 90.859 C 108.111 90.949,107.304 91.091,106.427 91.174 C 104.778 91.330,104.142 91.549,103.599 92.150 C 103.424 92.342,103.213 92.500,103.130 92.500 C 102.548 92.500,101.167 94.253,101.167 94.991 C 101.167 95.088,101.099 95.167,101.016 95.167 C 100.824 95.167,100.500 96.089,100.500 96.638 C 100.500 97.157,100.852 98.167,101.033 98.167 C 101.107 98.167,101.167 98.252,101.167 98.357 C 101.167 99.052,101.981 100.068,103.322 101.044 L 104.750 102.083 109.546 102.083 L 114.342 102.083 114.935 101.455 C 115.261 101.109,115.784 100.719,116.098 100.588 C 116.426 100.451,116.738 100.168,116.831 99.923 C 116.920 99.688,117.179 99.411,117.405 99.308 C 118.450 98.832,118.742 95.276,117.840 94.009 C 117.259 93.193,116.502 92.507,116.060 92.396 C 115.850 92.343,115.636 92.166,115.584 92.001 C 115.450 91.579,114.803 91.362,113.129 91.177 C 112.329 91.088,111.541 90.947,111.379 90.863 C 110.987 90.660,109.728 90.532,109.001 90.622 M149.750 91.165 C 146.943 91.403,146.786 91.724,146.862 97.077 L 146.917 100.994 147.432 101.509 C 147.780 101.857,148.170 102.054,148.630 102.116 C 150.154 102.321,150.571 101.852,150.846 99.624 C 151.084 97.697,151.119 97.676,154.083 97.703 C 156.610 97.726,157.090 97.599,157.278 96.859 C 157.527 95.879,156.777 95.583,154.037 95.583 C 151.290 95.583,151.248 95.572,151.092 94.740 C 151.031 94.412,150.945 94.052,150.903 93.940 C 150.747 93.535,151.911 93.333,154.394 93.333 C 157.322 93.333,158.100 92.954,157.495 91.824 C 157.059 91.010,154.320 90.777,149.750 91.165 M185.837 91.183 C 184.812 91.402,184.424 92.163,184.985 92.857 C 185.286 93.229,185.422 93.253,187.558 93.304 C 190.376 93.372,190.139 92.981,190.199 97.646 C 190.258 102.130,190.272 102.169,191.810 102.164 C 193.771 102.159,193.833 102.012,193.833 97.383 C 193.833 93.011,193.651 93.333,196.125 93.333 C 199.119 93.333,200.279 92.323,198.458 91.301 C 198.035 91.064,186.881 90.959,185.837 91.183 M283.833 91.116 C 282.406 91.312,282.336 91.345,281.959 92.001 C 281.752 92.361,281.404 92.751,281.185 92.868 C 280.966 92.985,280.642 93.418,280.466 93.829 C 280.290 94.240,280.093 94.616,280.028 94.663 C 279.631 94.958,278.984 95.941,278.842 96.466 C 278.742 96.837,278.529 97.150,278.307 97.250 C 278.104 97.342,277.753 97.754,277.528 98.167 C 277.303 98.579,277.017 98.977,276.892 99.050 C 276.526 99.266,276.150 100.137,276.122 100.833 C 276.053 102.584,278.905 102.809,279.669 101.113 C 280.300 99.715,281.223 99.056,282.166 99.330 C 282.855 99.531,285.620 99.543,286.620 99.349 C 287.330 99.212,287.833 99.465,287.833 99.959 C 287.833 100.060,288.035 100.301,288.281 100.494 C 288.527 100.688,288.874 101.087,289.052 101.382 C 289.847 102.698,292.667 102.394,292.667 100.992 C 292.667 100.594,292.171 99.667,291.958 99.667 C 291.883 99.667,291.684 99.348,291.515 98.958 C 291.347 98.569,290.932 97.958,290.594 97.602 C 290.256 97.245,289.861 96.658,289.716 96.297 C 289.571 95.935,289.291 95.579,289.091 95.503 C 288.860 95.415,288.653 95.110,288.518 94.661 C 288.402 94.273,288.069 93.703,287.778 93.394 C 286.939 92.501,286.838 92.366,286.672 91.929 C 286.476 91.415,284.915 90.967,283.833 91.116 M323.039 91.157 C 321.839 91.249,321.604 91.321,321.211 91.713 L 320.761 92.164 320.770 96.775 L 320.779 101.387 321.232 101.777 C 321.962 102.404,323.394 102.272,324.160 101.507 C 324.449 101.217,324.501 100.950,324.505 99.708 C 324.512 97.920,324.661 97.667,325.708 97.667 C 326.915 97.667,329.011 99.267,329.843 100.825 C 330.465 101.990,330.583 102.068,331.819 102.138 C 333.935 102.257,334.443 100.241,332.659 98.807 C 332.297 98.516,331.853 98.028,331.672 97.722 C 331.492 97.417,331.230 97.167,331.089 97.167 C 330.948 97.167,330.833 97.092,330.833 97.000 C 330.833 96.908,330.815 96.787,330.792 96.731 C 330.769 96.674,331.065 96.505,331.451 96.356 C 332.191 96.068,333.167 95.007,333.167 94.491 C 333.167 94.327,333.210 94.080,333.264 93.941 C 333.321 93.792,333.208 93.562,332.991 93.385 C 332.788 93.219,332.294 92.763,331.894 92.371 C 330.660 91.162,327.907 90.784,323.039 91.157 M365.046 91.157 C 362.411 91.359,362.311 91.571,362.371 96.871 L 362.417 100.992 363.000 101.538 L 363.583 102.083 368.281 102.083 L 372.978 102.083 373.481 101.601 C 374.894 100.248,371.287 99.056,368.243 99.870 C 367.196 100.150,366.632 99.844,366.478 98.911 C 366.294 97.799,366.630 97.626,368.928 97.655 C 371.919 97.694,372.710 97.358,372.363 96.200 C 372.008 95.016,370.206 94.571,368.126 95.154 C 367.201 95.414,367.015 95.316,366.683 94.399 C 366.329 93.421,366.573 93.333,369.645 93.333 C 372.342 93.333,373.136 93.188,373.483 92.632 C 374.364 91.221,371.267 90.680,365.046 91.157 M226.038 91.425 C 225.266 91.967,225.276 93.084,226.057 93.384 C 226.188 93.434,226.388 93.866,226.503 94.345 C 226.635 94.898,226.918 95.444,227.276 95.841 C 227.587 96.184,227.956 96.854,228.097 97.328 C 228.238 97.803,228.566 98.413,228.826 98.686 C 229.087 98.958,229.418 99.544,229.563 99.987 C 230.061 101.510,230.830 102.067,232.531 102.138 C 233.879 102.195,234.003 102.172,234.328 101.808 C 235.367 100.643,235.833 100.015,235.833 99.781 C 235.833 99.637,235.898 99.480,235.978 99.431 C 236.057 99.382,236.164 99.080,236.216 98.760 C 236.271 98.423,236.522 97.971,236.812 97.687 C 237.177 97.330,237.371 96.920,237.524 96.182 C 237.734 95.162,237.931 94.916,238.103 95.458 C 238.357 96.263,238.757 97.045,239.004 97.220 C 239.351 97.467,239.591 97.933,239.719 98.606 C 239.773 98.893,240.037 99.370,240.306 99.664 C 240.575 99.958,240.999 100.603,241.249 101.095 C 241.725 102.037,241.668 102.005,243.296 102.235 C 244.726 102.437,246.015 101.638,246.347 100.343 C 246.488 99.793,246.679 99.487,246.995 99.305 C 247.323 99.117,247.519 98.787,247.730 98.066 C 247.888 97.526,248.201 96.897,248.427 96.669 C 248.652 96.441,248.958 95.916,249.107 95.502 C 249.257 95.088,249.537 94.600,249.731 94.416 C 250.570 93.621,250.800 91.896,250.130 91.426 C 249.058 90.676,247.411 91.194,246.870 92.451 C 246.681 92.891,246.336 93.429,246.104 93.648 C 245.832 93.903,245.614 94.368,245.493 94.950 C 245.359 95.595,245.164 95.981,244.816 96.291 C 244.516 96.559,244.291 96.956,244.232 97.324 C 244.037 98.545,243.461 98.817,243.267 97.781 C 243.209 97.475,242.938 97.010,242.665 96.748 C 242.391 96.486,242.167 96.139,242.167 95.979 C 242.167 95.818,242.101 95.646,242.022 95.597 C 241.942 95.547,241.828 95.264,241.769 94.968 C 241.709 94.671,241.463 94.223,241.222 93.971 C 240.981 93.719,240.626 93.116,240.433 92.631 C 239.478 90.224,235.936 90.714,235.351 93.333 C 235.252 93.777,235.019 94.219,234.779 94.417 C 234.320 94.794,233.834 95.667,233.832 96.117 C 233.831 96.670,233.486 97.667,233.297 97.667 C 233.194 97.667,232.991 97.772,232.846 97.902 C 232.172 98.504,231.947 98.324,231.721 97.002 C 231.549 95.987,231.420 95.675,231.035 95.335 C 230.743 95.077,230.476 94.597,230.339 94.083 C 229.726 91.780,227.497 90.403,226.038 91.425 M228.304 91.989 C 228.975 92.725,229.667 93.615,229.667 93.740 C 229.667 93.957,230.374 95.427,230.833 96.167 C 231.090 96.579,231.349 97.179,231.410 97.500 C 231.662 98.841,231.924 98.986,233.343 98.573 C 233.630 98.490,234.015 97.671,234.331 96.470 C 234.444 96.041,234.705 95.533,234.910 95.340 C 235.115 95.147,235.425 94.561,235.600 94.038 C 236.582 91.092,238.814 90.729,240.098 93.308 C 240.381 93.877,240.768 94.486,240.957 94.662 C 241.146 94.839,241.430 95.380,241.588 95.866 C 241.746 96.352,242.053 96.989,242.271 97.281 C 242.489 97.572,242.669 97.872,242.672 97.947 C 242.684 98.253,243.525 99.020,243.794 98.970 C 243.953 98.941,244.262 98.543,244.480 98.086 C 244.698 97.629,244.970 97.179,245.084 97.086 C 245.199 96.993,245.430 96.542,245.598 96.083 C 245.949 95.127,246.094 94.839,246.688 93.917 C 246.925 93.550,247.170 93.087,247.233 92.889 C 247.618 91.675,249.321 91.126,249.818 92.055 C 250.030 92.451,248.394 96.167,248.009 96.167 C 247.929 96.167,247.712 96.617,247.526 97.168 C 247.340 97.719,246.911 98.487,246.573 98.876 C 246.235 99.265,245.830 99.921,245.673 100.333 C 244.943 102.252,242.264 102.300,241.496 100.408 C 241.300 99.923,240.986 99.389,240.800 99.221 C 240.613 99.054,240.243 98.429,239.978 97.833 C 239.712 97.237,239.419 96.638,239.326 96.500 C 239.233 96.362,239.028 96.036,238.870 95.773 C 238.102 94.498,237.683 94.367,237.308 95.287 C 236.809 96.512,236.497 97.149,236.353 97.238 C 236.266 97.292,235.998 97.851,235.757 98.482 C 235.516 99.112,235.166 99.766,234.979 99.936 C 234.792 100.105,234.539 100.482,234.417 100.775 C 234.146 101.422,233.845 101.593,232.695 101.748 L 231.806 101.868 231.054 101.061 C 230.641 100.618,230.077 99.766,229.800 99.169 C 229.524 98.572,229.162 97.933,228.996 97.750 C 228.829 97.567,228.564 97.079,228.405 96.667 C 228.247 96.254,227.845 95.542,227.512 95.083 C 226.309 93.428,226.133 92.041,227.078 91.659 C 227.647 91.428,227.841 91.480,228.304 91.989 M285.788 91.993 C 286.072 92.203,286.531 92.721,286.809 93.145 C 287.087 93.570,287.491 94.104,287.705 94.333 C 287.920 94.563,288.192 94.985,288.310 95.272 C 288.428 95.559,288.704 95.951,288.925 96.142 C 289.145 96.334,289.440 96.765,289.580 97.101 C 289.720 97.437,290.104 98.010,290.434 98.374 C 290.763 98.739,291.146 99.310,291.285 99.643 C 291.424 99.977,291.679 100.448,291.851 100.690 L 292.163 101.130 291.598 101.398 C 290.468 101.935,289.551 101.670,289.264 100.725 C 289.053 100.031,287.534 98.680,286.741 98.480 C 285.927 98.275,285.898 98.232,286.255 97.760 C 286.715 97.152,286.559 96.466,285.743 95.510 C 285.327 95.022,284.875 94.408,284.739 94.145 C 284.499 93.681,284.167 93.498,284.167 93.831 C 284.167 93.921,283.860 94.198,283.486 94.446 C 281.425 95.810,281.562 98.315,283.682 98.019 C 284.559 97.897,285.500 97.968,285.500 98.156 C 285.500 98.397,284.563 98.488,283.133 98.387 L 281.737 98.289 280.779 98.934 C 280.030 99.438,279.734 99.769,279.420 100.457 C 279.149 101.047,278.875 101.389,278.581 101.501 C 277.373 101.960,276.249 101.432,276.693 100.614 C 277.264 99.565,277.948 98.519,278.512 97.833 C 278.850 97.421,279.246 96.801,279.390 96.456 C 279.534 96.111,279.773 95.782,279.921 95.725 C 280.069 95.668,280.360 95.238,280.568 94.769 C 280.775 94.300,281.201 93.689,281.514 93.412 C 281.827 93.135,282.270 92.632,282.498 92.294 C 282.946 91.633,283.292 91.509,284.511 91.572 C 284.994 91.597,285.461 91.751,285.788 91.993 M70.875 92.023 C 71.737 92.483,70.880 93.118,69.779 92.835 C 67.692 92.301,64.664 92.831,64.667 93.730 C 64.670 94.511,67.235 95.851,69.315 96.158 C 70.292 96.303,70.665 96.443,71.113 96.837 C 71.424 97.110,71.764 97.333,71.868 97.333 C 72.737 97.333,73.026 99.402,72.234 99.951 C 71.995 100.115,71.527 100.484,71.192 100.770 C 70.320 101.514,70.109 101.549,66.417 101.581 C 62.216 101.617,61.431 101.387,62.409 100.409 C 62.891 99.928,63.167 99.907,64.238 100.272 C 65.210 100.603,68.979 100.530,69.410 100.172 C 69.730 99.907,69.763 98.195,69.456 97.776 C 69.301 97.564,68.812 97.439,67.596 97.301 C 66.279 97.151,65.730 97.001,64.877 96.557 C 64.290 96.251,63.679 96.000,63.519 96.000 C 63.119 96.000,62.443 95.220,62.139 94.408 C 61.821 93.559,62.420 92.737,63.802 92.127 C 64.714 91.724,70.165 91.644,70.875 92.023 M115.032 92.375 C 115.549 92.719,116.052 93.000,116.149 93.000 C 116.246 93.000,116.454 93.206,116.610 93.458 C 116.766 93.710,117.087 94.128,117.322 94.386 C 117.720 94.823,117.750 94.970,117.750 96.478 L 117.750 98.100 116.833 99.128 C 116.309 99.717,115.647 100.266,115.286 100.412 C 114.939 100.553,114.610 100.786,114.555 100.930 C 114.300 101.596,105.864 101.966,104.946 101.352 C 102.079 99.433,101.614 98.902,101.421 97.333 C 101.151 95.122,101.981 93.675,104.167 92.548 C 104.396 92.430,104.798 92.202,105.060 92.042 C 105.481 91.784,106.032 91.750,109.813 91.750 L 114.090 91.750 115.032 92.375 M153.852 91.868 C 156.065 91.833,156.487 91.867,156.675 92.093 C 157.059 92.556,156.557 92.661,153.966 92.664 C 150.566 92.668,150.338 92.783,150.338 94.500 C 150.338 96.238,150.579 96.365,153.944 96.395 C 156.320 96.417,156.734 96.500,156.355 96.878 C 156.209 97.024,155.540 97.071,154.033 97.040 C 150.436 96.965,150.170 97.160,150.168 99.866 C 150.166 101.573,149.533 102.099,148.333 101.390 L 147.865 101.113 147.803 97.348 C 147.712 91.861,147.843 91.528,150.000 91.770 C 150.688 91.847,152.421 91.891,153.852 91.868 M189.250 91.858 C 191.449 91.749,193.417 91.768,194.290 91.907 C 194.869 91.999,195.495 91.976,196.144 91.838 C 197.012 91.654,197.173 91.663,197.562 91.918 C 198.471 92.513,197.884 92.750,195.664 92.684 C 193.337 92.615,193.437 92.421,193.333 97.178 C 193.240 101.465,193.262 101.390,191.989 101.570 C 190.725 101.749,190.709 101.699,190.641 97.326 C 190.567 92.498,190.626 92.625,188.446 92.677 C 186.942 92.713,185.666 92.566,185.668 92.356 C 185.670 92.087,186.946 91.705,187.500 91.808 C 187.821 91.868,188.608 91.890,189.250 91.858 M327.015 91.856 C 329.914 91.824,330.874 92.079,331.905 93.154 C 332.742 94.028,332.216 95.528,330.875 96.089 C 329.927 96.486,330.092 96.996,331.727 98.725 C 332.234 99.261,332.804 100.011,332.994 100.392 L 333.340 101.083 332.929 101.443 C 332.517 101.803,332.042 101.796,331.119 101.416 C 330.851 101.305,329.833 99.995,329.833 99.761 C 329.833 99.474,327.807 97.655,327.167 97.368 C 325.862 96.783,325.114 96.761,324.471 97.289 C 323.678 97.940,323.672 97.956,323.667 99.333 C 323.659 101.304,322.741 102.325,321.759 101.456 L 321.338 101.083 321.283 97.250 C 321.204 91.785,321.289 91.548,323.249 91.760 C 323.891 91.829,325.586 91.873,327.015 91.856 M368.583 91.908 C 369.775 91.913,370.975 91.861,371.250 91.793 C 371.629 91.699,371.851 91.750,372.167 92.000 C 372.885 92.570,372.371 92.694,369.609 92.618 C 367.349 92.556,367.075 92.581,366.442 92.900 L 365.750 93.250 365.754 94.250 C 365.761 96.019,366.656 96.635,368.766 96.321 C 369.879 96.156,370.305 96.155,370.853 96.319 C 372.074 96.685,371.391 96.915,369.033 96.931 C 365.881 96.953,365.362 97.279,365.609 99.085 C 365.788 100.388,366.167 100.525,369.424 100.466 C 371.812 100.422,372.149 100.450,372.577 100.731 L 373.056 101.045 372.611 101.278 C 371.759 101.724,364.200 101.679,363.672 101.225 L 363.250 100.862 363.250 96.695 L 363.250 92.527 363.667 92.078 C 364.071 91.644,364.119 91.634,365.250 91.765 C 365.892 91.839,367.392 91.903,368.583 91.908 M324.359 93.113 C 323.315 94.131,323.902 96.500,325.199 96.500 C 325.713 96.500,327.824 96.000,328.667 95.678 L 329.417 95.392 329.417 94.407 C 329.417 93.121,328.871 92.778,326.540 92.595 L 325.013 92.476 324.359 93.113 M106.917 92.871 C 105.688 93.308,103.833 95.568,103.833 96.629 C 103.833 97.884,105.926 100.124,107.311 100.353 C 109.826 100.768,112.463 100.422,113.311 99.566 C 113.619 99.255,113.945 99.000,114.034 99.000 C 114.260 99.000,114.821 98.301,114.828 98.012 C 114.831 97.881,114.919 97.537,115.023 97.249 C 115.351 96.343,115.074 95.241,114.334 94.501 C 113.981 94.147,113.611 93.708,113.513 93.525 C 113.115 92.781,108.465 92.320,106.917 92.871 M112.057 93.439 C 112.701 93.527,112.880 93.635,113.155 94.100 C 113.335 94.406,113.671 94.703,113.902 94.761 C 114.893 95.010,114.828 98.198,113.828 98.418 C 113.558 98.477,113.292 98.598,113.238 98.686 C 112.383 100.069,107.697 100.389,106.457 99.150 C 106.192 98.884,105.879 98.667,105.763 98.667 C 104.315 98.667,104.476 95.757,106.004 94.316 L 107.047 93.333 109.167 93.333 C 110.333 93.333,111.633 93.381,112.057 93.439 M328.344 93.506 C 328.596 93.641,328.667 93.858,328.667 94.503 C 328.667 95.479,328.693 95.467,326.333 95.537 L 324.750 95.583 324.602 94.711 C 324.386 93.437,324.524 93.333,326.448 93.333 C 327.314 93.333,328.167 93.411,328.344 93.506 M285.734 96.296 C 286.169 96.494,286.307 96.894,286.004 97.081 C 285.591 97.336,282.802 97.252,282.656 96.981 C 282.420 96.540,282.825 95.796,283.650 95.153 L 284.417 94.557 284.859 95.328 C 285.102 95.752,285.496 96.187,285.734 96.296 " stroke="none" fill="#bca7ad" fill-rule="evenodd"></path><path id="path3" d="M47.278 1.125 C 47.203 1.934,47.108 20.857,47.162 24.206 C 47.165 24.366,47.465 24.684,47.830 24.915 L 48.493 25.333 68.218 25.333 L 87.942 25.333 88.317 24.934 L 88.692 24.535 88.686 13.226 C 88.683 7.006,88.677 1.485,88.673 0.958 C 88.667 0.006,88.663 0.000,88.167 0.000 C 87.744 0.000,87.667 0.065,87.667 0.417 C 87.667 0.657,87.763 0.833,87.894 0.833 C 88.290 0.833,88.333 2.070,88.333 13.361 L 88.333 24.342 87.913 24.502 C 87.224 24.763,48.597 24.730,48.176 24.467 C 47.719 24.182,47.677 24.013,47.847 23.155 C 47.928 22.749,47.989 17.804,47.982 12.167 C 47.973 5.121,48.026 1.770,48.151 1.447 C 48.504 0.539,48.394 0.000,47.857 -0.000 C 47.391 -0.000,47.379 0.023,47.278 1.125 M39.362 23.575 L 38.808 23.966 39.503 24.084 C 40.340 24.225,40.623 24.026,40.307 23.520 C 40.039 23.090,40.049 23.090,39.362 23.575 M0.708 28.954 C 0.200 29.001,0.000 29.094,-0.000 29.283 C -0.000 29.513,0.193 29.534,1.458 29.441 C 3.556 29.288,40.303 29.312,41.000 29.467 L 41.583 29.597 41.631 42.257 C 41.680 55.476,41.667 55.900,41.208 56.076 C 40.847 56.215,2.434 56.198,1.042 56.058 C 0.056 55.960,0.000 55.973,0.000 56.310 L 0.000 56.667 19.792 56.702 C 42.419 56.742,41.288 56.763,41.792 56.292 L 42.167 55.942 42.163 42.846 C 42.159 30.189,42.149 29.736,41.839 29.333 L 41.519 28.917 21.468 28.903 C 10.440 28.895,1.098 28.918,0.708 28.954 M48.605 31.125 C 48.724 32.739,48.833 33.137,48.833 31.958 C 48.833 31.538,48.893 31.169,48.965 31.139 C 49.038 31.108,49.302 30.811,49.553 30.478 C 50.058 29.808,49.960 29.667,48.985 29.667 L 48.498 29.667 48.605 31.125 M86.152 30.015 C 86.408 30.117,86.712 30.118,86.986 30.018 C 87.358 29.881,87.302 29.859,86.583 29.857 C 85.882 29.855,85.814 29.880,86.152 30.015 M85.750 32.500 L 85.083 32.809 86.583 32.809 L 88.083 32.809 87.417 32.500 C 87.050 32.330,86.675 32.191,86.583 32.191 C 86.492 32.191,86.117 32.330,85.750 32.500 M59.042 32.786 C 59.294 32.824,59.706 32.824,59.958 32.786 C 60.210 32.748,60.004 32.717,59.500 32.717 C 58.996 32.717,58.790 32.748,59.042 32.786 M365.363 33.492 C 364.874 34.296,364.975 40.049,365.487 40.561 C 366.023 41.097,366.429 40.605,366.381 39.475 C 366.311 37.827,366.941 37.219,368.228 37.689 C 368.696 37.860,369.097 38.000,369.118 38.000 C 369.140 38.000,369.280 38.244,369.429 38.542 C 369.578 38.840,369.878 39.271,370.095 39.500 C 370.312 39.729,370.725 40.198,371.012 40.542 C 371.614 41.262,371.713 41.287,372.167 40.833 C 372.666 40.334,372.576 39.853,371.858 39.183 C 370.978 38.362,370.733 36.500,371.504 36.500 C 372.856 36.500,372.545 33.866,371.164 33.631 C 370.754 33.561,370.391 33.423,370.358 33.325 C 370.278 33.085,369.667 33.646,369.667 33.959 C 369.667 34.091,369.897 34.415,370.178 34.678 C 370.855 35.310,370.813 35.993,370.083 36.210 C 366.946 37.140,365.879 36.700,366.692 34.811 C 367.312 33.369,366.143 32.209,365.363 33.492 M366.186 34.042 C 366.261 34.825,365.816 35.406,365.641 34.754 C 365.575 34.507,365.562 34.199,365.612 34.069 C 365.724 33.778,366.159 33.757,366.186 34.042 M371.833 35.343 C 371.833 35.668,371.749 35.833,371.583 35.833 C 371.315 35.833,371.279 35.636,371.438 35.044 C 371.573 34.539,371.833 34.736,371.833 35.343 M366.175 36.682 C 366.314 36.942,366.310 37.153,366.160 37.515 C 365.860 38.239,365.667 38.103,365.667 37.167 C 365.667 36.288,365.864 36.100,366.175 36.682 M370.468 37.732 C 370.537 38.814,370.269 39.069,369.926 38.247 C 369.634 37.547,369.252 37.191,368.750 37.150 C 368.284 37.112,369.487 36.865,370.000 36.894 C 370.377 36.914,370.422 36.995,370.468 37.732 M371.874 39.875 C 371.970 40.135,371.851 40.500,371.671 40.500 C 371.487 40.500,371.310 40.006,371.426 39.818 C 371.559 39.602,371.784 39.631,371.874 39.875 M48.696 48.018 C 48.680 48.441,48.619 49.135,48.561 49.560 L 48.455 50.333 48.964 50.333 C 49.948 50.333,50.042 50.201,49.539 49.525 C 49.289 49.191,49.034 48.878,48.971 48.831 C 48.908 48.783,48.827 48.408,48.791 47.997 L 48.725 47.250 48.696 48.018 M54.500 47.986 C 54.500 48.549,54.380 48.840,53.913 49.411 C 53.273 50.191,53.340 50.333,54.348 50.333 L 54.835 50.333 54.728 48.875 C 54.611 47.291,54.500 46.857,54.500 47.986 M39.495 63.491 C 39.742 63.952,40.014 64.080,40.183 63.813 C 40.457 63.379,40.341 63.167,39.827 63.167 C 39.378 63.167,39.341 63.203,39.495 63.491 M227.078 91.659 C 226.133 92.041,226.309 93.428,227.512 95.083 C 227.845 95.542,228.247 96.254,228.405 96.667 C 228.564 97.079,228.829 97.567,228.996 97.750 C 229.162 97.933,229.524 98.572,229.800 99.169 C 230.077 99.766,230.641 100.618,231.054 101.061 L 231.806 101.868 232.695 101.748 C 233.845 101.593,234.146 101.422,234.417 100.775 C 234.539 100.482,234.792 100.105,234.979 99.936 C 235.166 99.766,235.516 99.112,235.757 98.482 C 235.998 97.851,236.266 97.292,236.353 97.238 C 236.497 97.149,236.809 96.512,237.308 95.287 C 237.683 94.367,238.102 94.498,238.870 95.773 C 239.028 96.036,239.233 96.362,239.326 96.500 C 239.419 96.638,239.712 97.237,239.978 97.833 C 240.243 98.429,240.613 99.054,240.800 99.221 C 240.986 99.389,241.300 99.923,241.496 100.408 C 242.264 102.300,244.943 102.252,245.673 100.333 C 245.830 99.921,246.235 99.265,246.573 98.876 C 246.911 98.487,247.340 97.719,247.526 97.168 C 247.712 96.617,247.929 96.167,248.009 96.167 C 248.394 96.167,250.030 92.451,249.818 92.055 C 249.321 91.126,247.618 91.675,247.233 92.889 C 247.170 93.087,246.925 93.550,246.688 93.917 C 246.094 94.839,245.949 95.127,245.598 96.083 C 245.430 96.542,245.199 96.993,245.084 97.086 C 244.970 97.179,244.698 97.629,244.480 98.086 C 244.262 98.543,243.953 98.941,243.794 98.970 C 243.525 99.020,242.684 98.253,242.672 97.947 C 242.669 97.872,242.489 97.572,242.271 97.281 C 242.053 96.989,241.746 96.352,241.588 95.866 C 241.430 95.380,241.146 94.839,240.957 94.662 C 240.768 94.486,240.381 93.877,240.098 93.308 C 238.814 90.729,236.582 91.092,235.600 94.038 C 235.425 94.561,235.115 95.147,234.910 95.340 C 234.705 95.533,234.444 96.041,234.331 96.470 C 234.015 97.671,233.630 98.490,233.343 98.573 C 231.924 98.986,231.662 98.841,231.410 97.500 C 231.349 97.179,231.090 96.579,230.833 96.167 C 230.374 95.427,229.667 93.957,229.667 93.740 C 229.667 93.615,228.975 92.725,228.304 91.989 C 227.841 91.480,227.647 91.428,227.078 91.659 M283.332 91.607 C 283.087 91.650,282.741 91.935,282.498 92.294 C 282.270 92.632,281.827 93.135,281.514 93.412 C 281.201 93.689,280.775 94.300,280.568 94.769 C 280.360 95.238,280.069 95.668,279.921 95.725 C 279.773 95.782,279.534 96.111,279.390 96.456 C 279.246 96.801,278.850 97.421,278.512 97.833 C 277.948 98.519,277.264 99.565,276.693 100.614 C 276.249 101.432,277.373 101.960,278.581 101.501 C 278.875 101.389,279.149 101.047,279.420 100.457 C 279.734 99.769,280.030 99.438,280.779 98.934 L 281.737 98.289 283.133 98.387 C 284.563 98.488,285.500 98.397,285.500 98.156 C 285.500 97.968,284.559 97.897,283.682 98.019 C 281.562 98.315,281.425 95.810,283.486 94.446 C 283.860 94.198,284.167 93.921,284.167 93.831 C 284.167 93.498,284.499 93.681,284.739 94.145 C 284.875 94.408,285.327 95.022,285.743 95.510 C 286.559 96.466,286.715 97.152,286.255 97.760 C 285.898 98.232,285.927 98.275,286.741 98.480 C 287.534 98.680,289.053 100.031,289.264 100.725 C 289.551 101.670,290.468 101.935,291.598 101.398 L 292.163 101.130 291.851 100.690 C 291.679 100.448,291.424 99.977,291.285 99.643 C 291.146 99.310,290.763 98.739,290.434 98.374 C 290.104 98.010,289.720 97.437,289.580 97.101 C 289.440 96.765,289.145 96.334,288.925 96.142 C 288.704 95.951,288.428 95.559,288.310 95.272 C 288.192 94.985,287.920 94.563,287.705 94.333 C 287.491 94.104,287.087 93.570,286.809 93.145 C 285.922 91.791,284.884 91.332,283.332 91.607 M63.802 92.127 C 62.420 92.737,61.821 93.559,62.139 94.408 C 62.443 95.220,63.119 96.000,63.519 96.000 C 63.679 96.000,64.290 96.251,64.877 96.557 C 65.730 97.001,66.279 97.151,67.596 97.301 C 68.812 97.439,69.301 97.564,69.456 97.776 C 69.763 98.195,69.730 99.907,69.410 100.172 C 68.979 100.530,65.210 100.603,64.238 100.272 C 63.167 99.907,62.891 99.928,62.409 100.409 C 61.431 101.387,62.216 101.617,66.417 101.581 C 70.109 101.549,70.320 101.514,71.192 100.770 C 71.527 100.484,71.995 100.115,72.234 99.951 C 73.026 99.402,72.737 97.333,71.868 97.333 C 71.764 97.333,71.424 97.110,71.113 96.837 C 70.665 96.443,70.292 96.303,69.315 96.158 C 67.235 95.851,64.670 94.511,64.667 93.730 C 64.664 92.831,67.692 92.301,69.779 92.835 C 70.651 93.059,71.167 92.879,71.167 92.351 C 71.167 91.699,65.184 91.517,63.802 92.127 M105.060 92.042 C 104.798 92.202,104.396 92.430,104.167 92.548 C 101.100 94.129,100.330 97.485,102.559 99.561 C 103.178 100.138,103.560 100.424,104.946 101.352 C 105.864 101.966,114.300 101.596,114.555 100.930 C 114.610 100.786,114.939 100.553,115.286 100.412 C 115.647 100.266,116.309 99.717,116.833 99.128 L 117.750 98.100 117.750 96.478 C 117.750 94.970,117.720 94.823,117.322 94.386 C 117.087 94.128,116.766 93.710,116.610 93.458 C 116.454 93.206,116.246 93.000,116.149 93.000 C 116.052 93.000,115.549 92.719,115.032 92.375 L 114.090 91.750 109.813 91.750 C 106.032 91.750,105.481 91.784,105.060 92.042 M148.361 92.049 C 147.791 92.664,147.734 93.199,147.803 97.348 L 147.865 101.113 148.333 101.390 C 149.533 102.099,150.166 101.573,150.168 99.866 C 150.170 97.160,150.436 96.965,154.033 97.040 C 155.540 97.071,156.209 97.024,156.355 96.878 C 156.734 96.500,156.320 96.417,153.944 96.395 C 150.579 96.365,150.338 96.238,150.338 94.500 C 150.338 92.783,150.566 92.668,153.966 92.664 C 156.557 92.661,157.059 92.556,156.675 92.093 C 156.487 91.867,156.065 91.833,153.852 91.868 C 152.421 91.891,150.688 91.847,150.000 91.770 C 148.794 91.635,148.736 91.644,148.361 92.049 M186.293 91.975 C 185.153 92.477,185.949 92.737,188.446 92.677 C 190.626 92.625,190.567 92.498,190.641 97.326 C 190.709 101.699,190.725 101.749,191.989 101.570 C 193.262 101.390,193.240 101.465,193.333 97.178 C 193.437 92.421,193.337 92.615,195.664 92.684 C 197.884 92.750,198.471 92.513,197.562 91.918 C 197.173 91.663,197.012 91.654,196.144 91.838 C 195.495 91.976,194.869 91.999,194.290 91.907 C 193.417 91.768,191.449 91.749,189.250 91.858 C 188.608 91.890,187.821 91.868,187.500 91.808 C 187.112 91.736,186.707 91.792,186.293 91.975 M321.776 91.971 C 321.288 92.511,321.225 93.188,321.283 97.250 L 321.338 101.083 321.759 101.456 C 322.741 102.325,323.659 101.304,323.667 99.333 C 323.672 97.956,323.678 97.940,324.471 97.289 C 325.114 96.761,325.862 96.783,327.167 97.368 C 327.807 97.655,329.833 99.474,329.833 99.761 C 329.833 99.995,330.851 101.305,331.119 101.416 C 332.042 101.796,332.517 101.803,332.929 101.443 L 333.340 101.083 332.994 100.392 C 332.804 100.011,332.234 99.261,331.727 98.725 C 330.092 96.996,329.927 96.486,330.875 96.089 C 332.216 95.528,332.742 94.028,331.905 93.154 C 330.874 92.079,329.914 91.824,327.015 91.856 C 325.586 91.873,323.891 91.829,323.249 91.760 C 322.197 91.646,322.051 91.667,321.776 91.971 M363.667 92.078 L 363.250 92.527 363.250 96.695 L 363.250 100.862 363.672 101.225 C 364.200 101.679,371.759 101.724,372.611 101.278 L 373.056 101.045 372.577 100.731 C 372.149 100.450,371.812 100.422,369.424 100.466 C 366.167 100.525,365.788 100.388,365.609 99.085 C 365.362 97.279,365.881 96.953,369.033 96.931 C 371.391 96.915,372.074 96.685,370.853 96.319 C 370.305 96.155,369.879 96.156,368.766 96.321 C 366.656 96.635,365.761 96.019,365.754 94.250 L 365.750 93.250 366.442 92.900 C 367.075 92.581,367.349 92.556,369.609 92.618 C 372.371 92.694,372.885 92.570,372.167 92.000 C 371.851 91.750,371.629 91.699,371.250 91.793 C 370.595 91.955,366.738 91.937,365.250 91.765 C 364.119 91.634,364.071 91.644,363.667 92.078 M286.021 92.982 C 286.376 93.384,286.667 93.834,286.668 93.982 C 286.668 94.129,286.891 94.376,287.162 94.530 C 287.445 94.692,287.704 95.011,287.770 95.280 C 287.919 95.882,288.318 96.499,288.561 96.503 C 288.665 96.504,288.975 96.972,289.250 97.542 C 289.525 98.113,289.994 98.814,290.292 99.101 C 290.609 99.406,290.833 99.789,290.833 100.024 C 290.833 100.245,290.944 100.584,291.079 100.776 C 291.310 101.106,291.295 101.133,290.831 101.226 C 290.125 101.367,289.906 101.232,289.694 100.527 C 289.487 99.834,289.214 99.501,288.113 98.599 C 287.475 98.076,287.306 97.803,287.004 96.809 C 286.751 95.977,286.476 95.465,286.055 95.044 C 285.729 94.718,285.363 94.213,285.241 93.921 C 284.811 92.891,283.891 92.742,283.459 93.633 C 283.330 93.898,283.041 94.118,282.708 94.203 C 282.248 94.322,282.167 94.418,282.167 94.844 C 282.167 95.344,281.785 96.096,281.366 96.423 C 281.244 96.517,281.102 96.930,281.050 97.339 C 280.936 98.233,280.798 98.426,279.969 98.849 C 279.620 99.027,279.333 99.267,279.333 99.381 C 279.333 100.245,278.459 101.161,277.630 101.164 C 276.963 101.167,276.879 100.781,277.512 100.615 C 277.727 100.559,277.833 100.386,277.833 100.093 C 277.833 99.604,278.180 98.987,278.857 98.273 C 279.105 98.010,279.395 97.560,279.501 97.273 C 279.822 96.404,279.935 96.252,280.308 96.197 C 280.540 96.162,280.701 95.986,280.764 95.697 C 280.889 95.124,281.371 94.167,281.535 94.167 C 281.815 94.167,282.833 93.005,282.833 92.686 C 282.833 91.608,284.985 91.808,286.021 92.982 M228.071 92.262 C 228.215 92.406,228.333 92.634,228.333 92.769 C 228.333 92.905,228.530 93.212,228.771 93.453 C 229.273 93.955,229.824 95.080,229.830 95.613 C 229.832 95.813,230.005 96.113,230.214 96.280 C 230.641 96.621,231.167 97.865,231.167 98.535 C 231.167 99.282,231.579 99.535,232.587 99.409 C 233.739 99.265,234.226 99.411,234.000 99.834 C 233.908 100.005,233.833 100.373,233.833 100.653 C 233.833 101.622,231.623 101.662,231.530 100.694 C 231.491 100.288,231.348 100.064,230.999 99.864 C 230.687 99.685,230.370 99.243,230.084 98.587 C 229.843 98.035,229.472 97.433,229.261 97.250 C 229.049 97.067,228.712 96.414,228.511 95.799 C 228.274 95.077,228.037 94.648,227.840 94.586 C 227.502 94.478,227.237 93.895,227.111 92.978 C 226.988 92.087,227.509 91.699,228.071 92.262 M238.827 92.437 C 239.399 92.918,239.833 93.648,239.833 94.127 C 239.833 94.415,239.950 94.564,240.812 95.384 C 240.986 95.549,241.218 96.037,241.328 96.467 C 241.625 97.630,241.801 98.000,242.056 98.000 C 242.182 98.000,242.354 98.241,242.438 98.535 C 242.801 99.799,244.369 99.908,244.761 98.697 C 244.859 98.396,245.140 97.962,245.386 97.734 C 245.632 97.506,245.833 97.140,245.833 96.920 C 245.833 96.700,245.900 96.479,245.981 96.428 C 246.062 96.378,246.178 96.077,246.237 95.759 C 246.297 95.441,246.520 95.044,246.734 94.876 C 246.947 94.708,247.175 94.386,247.241 94.160 C 247.307 93.935,247.477 93.431,247.619 93.042 L 247.879 92.333 248.731 92.345 C 249.467 92.354,249.532 92.381,249.208 92.537 C 248.940 92.666,248.833 92.863,248.833 93.231 C 248.833 93.943,248.176 95.459,247.828 95.550 C 247.669 95.591,247.448 95.916,247.336 96.271 C 246.928 97.567,246.586 98.153,246.145 98.311 C 245.796 98.437,245.666 98.643,245.501 99.330 C 245.387 99.804,245.185 100.234,245.051 100.286 C 244.917 100.337,244.740 100.557,244.657 100.776 C 244.103 102.233,242.204 101.327,241.672 99.351 C 241.542 98.869,241.376 98.656,241.039 98.537 C 240.656 98.403,240.532 98.195,240.260 97.235 C 240.083 96.607,239.779 95.941,239.585 95.755 C 239.391 95.569,239.062 95.173,238.855 94.875 C 238.105 93.799,237.086 94.044,236.690 95.394 C 236.556 95.851,236.365 96.167,236.223 96.167 C 235.960 96.167,235.500 97.121,235.500 97.667 C 235.500 98.280,235.040 99.172,234.776 99.070 C 234.101 98.811,234.450 96.391,235.200 96.130 C 235.516 96.020,235.667 95.851,235.668 95.609 C 235.668 95.411,235.781 95.035,235.918 94.773 C 236.055 94.510,236.167 94.163,236.167 94.001 C 236.167 93.840,236.289 93.606,236.439 93.481 C 236.589 93.357,236.890 92.973,237.108 92.627 C 237.589 91.865,238.082 91.810,238.827 92.437 M149.907 92.269 C 150.097 92.342,150.126 92.432,150.006 92.576 C 149.723 92.917,149.713 95.706,149.992 96.232 C 150.199 96.621,150.201 96.740,150.003 97.052 C 149.866 97.270,149.735 98.120,149.678 99.167 C 149.581 100.957,149.480 101.333,149.094 101.333 C 148.561 101.333,148.495 100.871,148.461 96.897 C 148.419 92.157,148.547 91.748,149.907 92.269 M192.747 93.643 C 192.680 94.344,192.610 96.051,192.590 97.437 C 192.551 100.135,192.252 101.167,191.509 101.167 C 191.235 101.167,191.206 100.854,191.126 97.042 C 191.078 94.773,190.987 92.792,190.924 92.640 C 190.785 92.305,191.079 92.225,192.128 92.310 L 192.868 92.370 192.747 93.643 M322.968 92.274 C 323.204 92.338,323.318 92.465,323.264 92.607 C 323.034 93.205,323.134 95.842,323.401 96.250 C 323.655 96.637,323.654 96.697,323.393 97.096 C 323.205 97.383,323.067 98.109,322.974 99.293 C 322.837 101.046,322.703 101.383,322.179 101.291 C 321.761 101.219,321.679 100.362,321.715 96.495 C 321.756 92.113,321.801 91.962,322.968 92.274 M365.189 93.767 C 365.163 94.601,365.219 95.577,365.316 95.935 C 365.450 96.433,365.435 96.773,365.254 97.377 C 364.990 98.252,365.137 100.480,365.487 100.901 C 365.640 101.086,365.557 101.145,365.046 101.211 C 363.860 101.365,363.695 100.730,363.731 96.146 C 363.761 92.338,363.819 92.110,364.730 92.200 L 365.238 92.250 365.189 93.767 M328.742 93.068 C 329.415 93.421,329.417 93.425,329.417 94.407 L 329.417 95.392 328.667 95.678 C 327.824 96.000,325.713 96.500,325.199 96.500 C 323.902 96.500,323.315 94.131,324.359 93.113 L 325.013 92.476 326.540 92.595 C 327.587 92.677,328.279 92.826,328.742 93.068 M112.433 92.929 C 112.975 93.086,113.406 93.324,113.513 93.525 C 113.611 93.708,113.981 94.147,114.334 94.501 C 115.074 95.241,115.351 96.343,115.023 97.249 C 114.919 97.537,114.831 97.881,114.828 98.012 C 114.821 98.301,114.260 99.000,114.034 99.000 C 113.945 99.000,113.619 99.255,113.311 99.566 C 112.463 100.422,109.826 100.768,107.311 100.353 C 105.926 100.124,103.833 97.884,103.833 96.629 C 103.833 95.938,105.264 93.840,106.148 93.233 C 107.040 92.621,110.757 92.441,112.433 92.929 M64.187 93.823 C 64.247 94.119,64.492 94.565,64.732 94.814 C 65.333 95.442,65.293 95.500,64.262 95.500 C 62.797 95.500,61.926 94.026,62.922 93.232 C 63.525 92.752,64.015 92.980,64.187 93.823 M331.482 93.398 C 332.112 94.068,331.464 95.826,330.692 95.542 C 330.266 95.386,330.172 95.151,330.169 94.242 C 330.165 92.986,330.745 92.613,331.482 93.398 M104.733 93.546 C 104.886 93.793,104.804 93.946,104.234 94.474 C 103.066 95.555,103.077 97.765,104.257 98.980 C 104.944 99.688,104.959 99.783,104.417 100.030 C 103.969 100.235,103.333 99.862,103.333 99.394 C 103.333 99.272,103.165 99.129,102.958 99.076 C 102.031 98.835,101.478 96.632,102.008 95.289 C 102.553 93.906,104.274 92.806,104.733 93.546 M115.845 93.339 C 116.022 93.434,116.273 93.766,116.403 94.076 C 116.532 94.386,116.788 94.720,116.971 94.818 C 117.805 95.264,117.628 97.528,116.686 98.463 C 116.342 98.804,115.991 99.202,115.906 99.346 C 115.648 99.782,114.208 100.182,114.082 99.853 C 114.026 99.708,114.041 99.568,114.115 99.542 C 115.680 98.991,116.139 95.597,114.833 94.249 C 114.558 93.966,114.333 93.650,114.333 93.548 C 114.333 93.179,115.296 93.046,115.845 93.339 M329.667 96.592 C 329.667 96.735,329.820 97.187,330.007 97.598 C 330.363 98.380,330.328 98.667,329.876 98.667 C 329.561 98.667,328.833 98.030,328.833 97.754 C 328.833 97.651,328.440 97.398,327.958 97.192 C 327.133 96.839,327.102 96.804,327.407 96.576 C 327.872 96.227,329.667 96.241,329.667 96.592 M69.455 96.708 C 69.375 96.941,68.089 96.903,67.667 96.656 C 67.504 96.561,67.787 96.508,68.472 96.505 C 69.246 96.501,69.508 96.556,69.455 96.708 M71.346 97.603 C 72.345 97.930,72.357 97.947,72.231 98.864 C 72.131 99.598,71.733 99.901,70.672 100.049 C 70.390 100.088,70.075 98.387,70.242 97.724 C 70.358 97.259,70.310 97.265,71.346 97.603 M331.419 99.125 C 331.641 99.377,331.825 99.673,331.828 99.782 C 331.831 99.892,331.971 100.079,332.140 100.199 C 332.514 100.464,332.861 101.084,332.716 101.228 C 332.494 101.450,331.817 101.319,331.545 101.000 C 331.388 100.817,331.180 100.667,331.082 100.667 C 330.799 100.667,330.333 99.745,330.333 99.183 C 330.333 98.508,330.852 98.481,331.419 99.125 M106.993 101.007 L 108.083 101.119 106.708 101.143 C 105.952 101.156,105.333 101.104,105.333 101.028 C 105.333 100.795,105.536 100.669,105.724 100.786 C 105.822 100.846,106.393 100.946,106.993 101.007 M64.667 101.101 C 64.667 101.137,64.273 101.166,63.792 101.164 C 63.310 101.163,63.007 101.104,63.117 101.034 C 63.312 100.910,64.667 100.969,64.667 101.101 M113.167 101.101 C 113.167 101.137,112.735 101.155,112.208 101.142 L 111.250 101.117 112.000 101.012 C 112.701 100.914,113.167 100.949,113.167 101.101 M69.211 101.117 C 69.006 101.157,68.631 101.158,68.377 101.120 C 68.124 101.081,68.292 101.049,68.750 101.048 C 69.208 101.046,69.416 101.078,69.211 101.117 " stroke="none" fill="#848488" fill-rule="evenodd"></path></g></svg>